<svg width="117" height="117" viewBox="0 0 117 117" fill="none" xmlns="http://www.w3.org/2000/svg">
<path d="M28.1568 65.0898V53.4143H31.2275C32.8928 53.4143 34.2028 53.9068 35.1574 54.8917C36.1226 55.8765 36.6052 57.3326 36.6052 59.26C36.6052 61.1133 36.1332 62.5482 35.1892 63.5649C34.2558 64.5815 32.9299 65.0898 31.2116 65.0898H28.1568ZM29.1592 64.232H31.0048C32.4155 64.232 33.5292 63.8349 34.346 63.0407C35.1627 62.2464 35.571 60.9862 35.571 59.26C35.571 57.5127 35.168 56.2472 34.3619 55.4635C33.5557 54.6693 32.4473 54.2721 31.0366 54.2721H29.1592V64.232Z" fill="#249552"/>
<path d="M39.1031 65.0898V53.4143H46.2946V54.2721H40.1055V58.6246H45.7059V59.4665H40.1055V64.232H46.4537V65.0898H39.1031Z" fill="#249552"/>
<path d="M49.9221 60.7532H54.6316L53.0565 56.4007C52.9822 56.1783 52.8549 55.8289 52.6746 55.3523C52.5049 54.8652 52.3882 54.5263 52.3246 54.3357H52.245C52.192 54.4733 52.0753 54.7963 51.895 55.3047C51.7253 55.8024 51.6033 56.1677 51.5291 56.4007L49.9221 60.7532ZM47.2174 65.0898L51.6564 53.4143H52.9133L57.3363 65.0898H56.2226L54.9498 61.5634H49.6198L48.3311 65.0898H47.2174Z" fill="#249552"/>
<path d="M59.0547 65.0898V53.4143H60.057V64.232H65.7211V65.0898H59.0547Z" fill="#249552"/>
<path d="M67.6144 65.0898V53.4143H68.6168V65.0898H67.6144Z" fill="#249552"/>
<path d="M71.242 59.26C71.242 57.3538 71.6981 55.8553 72.6102 54.7646C73.5224 53.6738 74.7051 53.1284 76.1582 53.1284C77.0598 53.1284 77.8182 53.3773 78.4334 53.875C79.0592 54.3622 79.5206 54.934 79.8176 55.5906L78.9585 55.9083C78.2796 54.6269 77.3409 53.9862 76.1423 53.9862C74.965 53.9862 74.0263 54.4681 73.3262 55.4317C72.6262 56.3954 72.2761 57.6715 72.2761 59.26C72.2761 60.8803 72.6315 62.1617 73.3421 63.1042C74.0528 64.0361 74.9862 64.5021 76.1423 64.5021C76.8742 64.5021 77.5 64.3062 78.0197 63.9143C78.5395 63.5225 78.9372 63.0301 79.213 62.437L80.1199 62.7388C79.7699 63.4907 79.2661 64.1208 78.6084 64.6292C77.9614 65.1269 77.1447 65.3758 76.1582 65.3758C74.7051 65.3758 73.5224 64.8357 72.6102 63.7555C71.6981 62.6647 71.242 61.1662 71.242 59.26Z" fill="#249552"/>
<path d="M82.3633 65.0898V53.4143H83.3656V65.0898H82.3633Z" fill="#249552"/>
<path d="M85.9908 59.26C85.9908 57.4174 86.4204 55.9348 87.2795 54.8122C88.1493 53.6897 89.3108 53.1284 90.7639 53.1284C92.2276 53.1284 93.3838 53.695 94.2324 54.8281C95.0915 55.9507 95.5211 57.4333 95.5211 59.2759C95.5211 61.1292 95.0915 62.6118 94.2324 63.7237C93.3732 64.8251 92.217 65.3758 90.7639 65.3758C89.3002 65.3758 88.1387 64.8198 87.2795 63.7078C86.4204 62.5959 85.9908 61.1133 85.9908 59.26ZM87.025 59.26C87.025 60.8485 87.3591 62.1193 88.0273 63.0724C88.6956 64.0255 89.6078 64.5021 90.7639 64.5021C91.8988 64.5021 92.8004 64.0361 93.4687 63.1042C94.1475 62.1617 94.4869 60.8856 94.4869 59.2759C94.4869 57.6662 94.1581 56.3848 93.5005 55.4317C92.8428 54.4681 91.9307 53.9862 90.7639 53.9862C89.6184 53.9862 88.7062 54.4628 88.0273 55.4159C87.3591 56.369 87.025 57.6503 87.025 59.26Z" fill="#249552"/>
<path d="M98.1304 60.9438V53.4143H99.1327V60.8962C99.1327 62.0929 99.4138 62.993 99.976 63.5966C100.538 64.2003 101.281 64.5021 102.203 64.5021C103.147 64.5021 103.895 64.195 104.447 63.5807C105.009 62.9665 105.29 62.0717 105.29 60.8962V53.4143H106.292V60.9438C106.292 62.3417 105.942 63.4325 105.242 64.2161C104.542 64.9892 103.529 65.3758 102.203 65.3758C100.909 65.3758 99.907 64.9945 99.1964 64.232C98.4857 63.459 98.1304 62.3629 98.1304 60.9438Z" fill="#249552"/>
<path d="M108.743 63.0248L109.681 62.6753C110.01 63.2366 110.461 63.6814 111.034 64.0096C111.606 64.3379 112.269 64.5021 113.022 64.5021C113.892 64.5021 114.598 64.2903 115.138 63.8667C115.69 63.4431 115.966 62.8606 115.966 62.1193C115.966 61.8228 115.902 61.5528 115.775 61.3092C115.658 61.055 115.515 60.8485 115.345 60.6897C115.186 60.5202 114.953 60.3561 114.645 60.1972C114.348 60.0384 114.078 59.9166 113.834 59.8319C113.6 59.7366 113.293 59.6254 112.911 59.4983C112.561 59.3818 112.296 59.2971 112.116 59.2441C111.935 59.1806 111.686 59.0853 111.368 58.9582C111.05 58.8205 110.8 58.6988 110.62 58.5929C110.45 58.487 110.254 58.3493 110.031 58.1798C109.809 57.9998 109.639 57.8198 109.522 57.6398C109.405 57.4491 109.305 57.2267 109.22 56.9726C109.135 56.7078 109.093 56.4272 109.093 56.1307C109.093 55.2199 109.437 54.4945 110.127 53.9544C110.827 53.4038 111.766 53.1284 112.943 53.1284C113.813 53.1284 114.576 53.3296 115.234 53.732C115.902 54.1239 116.38 54.6163 116.666 55.2094L115.807 55.5112C115.16 54.4945 114.194 53.9862 112.911 53.9862C112.041 53.9862 111.357 54.1821 110.859 54.574C110.371 54.9658 110.127 55.4847 110.127 56.1307C110.127 56.6072 110.302 57.0202 110.652 57.3697C111.012 57.7192 111.357 57.968 111.686 58.1163C112.015 58.254 112.556 58.4446 113.309 58.6882C113.383 58.7199 113.441 58.7411 113.484 58.7517C113.897 58.8894 114.248 59.0165 114.534 59.1329C114.82 59.2388 115.133 59.3871 115.473 59.5777C115.812 59.7683 116.083 59.9749 116.284 60.1972C116.486 60.409 116.655 60.6791 116.793 61.0074C116.931 61.3251 117 61.6798 117 62.0717C117 63.1095 116.639 63.9196 115.918 64.5021C115.197 65.0845 114.221 65.3758 112.991 65.3758C111.983 65.3758 111.118 65.164 110.397 64.7404C109.687 64.3168 109.135 63.7449 108.743 63.0248Z" fill="#249552"/>
<path d="M49.6093 77.2822L53.9512 73.9537L61.3927 83.63L57.0508 86.9585C56.1807 87.6256 55.3833 88.0933 54.6586 88.3618C53.9405 88.6388 53.256 88.7192 52.6051 88.6029C51.9542 88.4866 51.3208 88.1793 50.7047 87.6809C50.08 87.1891 49.4336 86.5088 48.7655 85.6401C48.0974 84.7714 47.6028 83.9679 47.2816 83.2297C46.9584 82.5068 46.8246 81.8164 46.8801 81.1586C46.9357 80.5007 47.1869 79.857 47.6338 79.2273C48.0807 78.5976 48.7392 77.9492 49.6093 77.2822ZM55.0941 84.521L56.3863 83.5304L52.7549 78.8083L51.4626 79.799C51.0319 80.1292 50.7624 80.4109 50.6543 80.6442C50.5441 80.8927 50.6247 81.1933 50.8959 81.546L53.2573 84.6166C53.5285 84.9692 53.7953 85.1202 54.0576 85.0695C54.3178 85.0341 54.6634 84.8512 55.0941 84.521Z" fill="#249552"/>
<path d="M34.8185 89.6817L34.5518 86.8639L38.4446 86.4966L38.3051 85.0229L33.5365 85.4729L33.2422 82.3636L41.9036 81.5464L43.0532 93.692L34.4891 94.5L34.6814 91.3448L38.8661 90.95L38.7113 89.3144L34.8185 89.6817Z" fill="#249552"/>
<path d="M25.7257 82.1556L26.9775 80.6136L30.6746 82.4332L22.437 91.9803L17.0155 89.3121L19.5833 76.9744L23.2804 78.794L22.8323 80.7316L25.7257 82.1556ZM21.2881 87.2438L21.4781 87.3373L23.7069 84.6258L22.0994 83.8347L21.2881 87.2438Z" fill="#249552"/>
<path d="M10.8881 69.8909L13.4803 68.1428L17.8574 74.613L7.73172 81.4414L5.54313 78.2064L13.0767 73.126L10.8881 69.8909Z" fill="#249552"/>
<path d="M11.9736 61.4598L12.7535 65.2853L0.779911 67.7186L0 63.8932L11.9736 61.4598Z" fill="#249552"/>
<path d="M9.8256 48.8593L13.1058 49.2552C13.2615 50.1418 13.2119 51.1845 12.957 52.3831C12.7157 53.5182 12.3939 54.4311 11.9917 55.1218C11.5788 55.8103 11.0711 56.318 10.4687 56.6448C9.86623 56.9717 9.15272 57.1419 8.32815 57.1556C7.50583 57.1587 6.55813 57.0465 5.48504 56.8191C4.44382 56.5984 3.55232 56.3263 2.81055 56.0028C2.06041 55.6665 1.47014 55.231 1.03975 54.6963C0.59873 54.1594 0.322095 53.5022 0.209845 52.7245C0.0998502 51.9363 0.163261 50.9853 0.400077 49.8715C0.451951 49.6275 0.5254 49.3604 0.620425 49.0701C0.707081 48.767 0.802106 48.4767 0.9055 48.1993C1.01115 47.9113 1.12291 47.6468 1.24079 47.4057C1.3503 47.1517 1.45916 46.9531 1.56736 46.8097L4.37798 48.0041C4.01693 48.8144 3.76536 49.5537 3.62327 50.222C3.47667 50.9115 3.43893 51.4024 3.51004 51.6946C3.58115 51.9868 3.80795 52.1735 4.19044 52.2545L9.19467 53.3151C9.29966 53.0824 9.39404 52.8474 9.47779 52.6102C9.55316 52.3601 9.61905 52.1025 9.67543 51.8373C9.90097 50.7765 9.95103 49.7839 9.8256 48.8593Z" fill="#249552"/>
<path d="M17.2972 43.4466L15.028 46.6258L5.07709 39.5458L7.34631 36.3666L17.2972 43.4466Z" fill="#249552"/>
<path d="M16.3889 35.1272C15.8692 34.1381 15.5045 33.2454 15.2946 32.4491C15.0893 31.6382 15.0628 30.899 15.215 30.2315C15.3768 29.559 15.7267 28.941 16.2647 28.3776C16.8027 27.8142 17.5526 27.2806 18.5145 26.7769C19.4859 26.2681 20.3519 25.9554 21.1124 25.8388C21.8825 25.7171 22.5858 25.7835 23.2224 26.0379C23.8685 26.2873 24.4625 26.7293 25.0045 27.3639C25.5509 27.9838 26.084 28.7884 26.6037 29.7775C27.0981 30.7186 27.4551 31.5848 27.6746 32.376C27.889 33.1577 27.9226 33.887 27.7755 34.5641C27.638 35.2362 27.3004 35.866 26.7629 36.4537C26.2299 37.0267 25.4633 37.5751 24.463 38.099C23.4627 38.6229 22.5701 38.9434 21.7853 39.0605C21.0052 39.163 20.2943 39.0822 19.6527 38.8181C19.0207 38.5491 18.4436 38.1043 17.9214 37.4839C17.3942 36.8539 16.8833 36.0683 16.3889 35.1272ZM19.1652 31.3771L21.5265 35.8714L22.9692 35.1158C23.4502 34.8639 23.7639 34.6323 23.9104 34.4209C24.0614 34.1948 24.0335 33.8849 23.8267 33.4912L21.4654 28.9969L20.0082 29.7601C19.5465 30.0019 19.2402 30.2358 19.0891 30.4619C18.933 30.6783 18.9584 30.9834 19.1652 31.3771Z" fill="#249552"/>
<path d="M33.958 22.5L37.8441 22.9323L36.8284 32.0339L38.2047 32.187C38.7013 32.2422 39.0431 32.2148 39.2303 32.1046C39.4282 31.9957 39.5513 31.7257 39.5994 31.2946L40.4996 23.2277L44.3857 23.6599L43.6262 30.4659C43.5107 31.5006 43.3431 32.3657 43.1234 33.0614C42.9145 33.7583 42.5905 34.3115 42.1514 34.7209C41.7242 35.1208 41.1598 35.3799 40.4581 35.4982C39.7564 35.6166 38.8658 35.6157 37.7863 35.4956C36.7069 35.3755 35.8379 35.1807 35.1795 34.911C34.5211 34.6414 34.0223 34.264 33.683 33.7789C33.3545 33.295 33.1597 32.6896 33.0988 31.9627C33.0498 31.2262 33.0831 30.3406 33.1985 29.306L33.958 22.5Z" fill="#249552"/>
<path d="M46.2619 36.866L48.7208 34.7092C49.4655 35.6868 50.2137 36.4791 50.9655 37.0859C51.3455 37.3927 51.6826 37.6578 51.9766 37.8812C52.2858 38.1029 52.5682 38.289 52.8235 38.4393L53.4381 37.6804L52.162 36.462C51.5933 35.9053 51.16 35.3882 50.8622 34.9108C50.5644 34.4333 50.3879 33.9701 50.3325 33.521C50.2925 33.0703 50.3575 32.6277 50.5277 32.1934C50.7132 31.7574 50.9971 31.3033 51.3795 30.831C51.9053 30.1817 52.4099 29.6965 52.8933 29.3756C53.3836 29.0462 53.8824 28.8701 54.3897 28.8473C54.9038 28.816 55.4375 28.9331 55.9908 29.1985C56.5526 29.4707 57.1713 29.8795 57.847 30.4249C59.19 31.509 60.3038 32.6172 61.1885 33.7497L58.8417 35.8716C58.0186 34.9562 57.3242 34.2701 56.7583 33.8133C56.1924 33.3565 55.6905 32.9931 55.2525 32.7233L54.6482 33.4696L55.6558 34.4503C56.2684 35.0564 56.7337 35.6202 57.0516 36.1418C57.3763 36.6549 57.5714 37.1471 57.6368 37.6182C57.7106 38.0962 57.6625 38.5524 57.4923 38.9867C57.3305 39.4279 57.0687 39.872 56.7068 40.3189C56.1878 40.9598 55.6663 41.4313 55.1423 41.7335C54.6182 42.0356 54.1458 42.2051 53.7249 42.2419C53.3804 42.2706 53.0202 42.2238 52.6443 42.1017C52.2751 41.971 51.9096 41.8015 51.5477 41.593C51.1858 41.3845 50.8367 41.1515 50.5005 40.8941C50.1658 40.6518 49.8676 40.4251 49.6058 40.2137C48.947 39.6819 48.3408 39.1368 47.7874 38.5785C47.2339 38.0201 46.7254 37.4493 46.2619 36.866Z" fill="#249552"/>
</svg>
