<svg width="112" height="24" viewBox="0 0 112 24" fill="none" xmlns="http://www.w3.org/2000/svg">
<path d="M58.0574 11.0287L62.1817 10.8655L58.721 22.8968H66.121L69.5805 10.8655L73.6121 11.0287L75.2548 5.31606H59.6989L58.0574 11.0287ZM42.735 14.1525C41.7001 19.7941 36.0307 23.1758 29.819 23.1758C23.608 23.1758 19.1779 19.7947 20.2128 14.1525C21.2258 8.62613 26.9613 5.03638 33.1457 5.03638C39.3301 5.03638 43.748 8.62677 42.735 14.1525ZM27.6486 14.2459C27.2816 16.251 28.5961 17.627 30.8363 17.627C33.0778 17.627 34.8964 16.2517 35.264 14.2459C35.6061 12.381 34.4342 10.8194 32.0847 10.8194C29.7353 10.8181 27.9907 12.381 27.6486 14.2459Z" fill="#D72E2B"/>
<path d="M40.4357 21.5669C42.5473 22.5685 45.4068 23.1759 47.9722 23.1759C52.3743 23.1759 57.1836 21.101 57.9527 16.9039C58.4999 13.9196 56.4975 12.4738 53.4754 11.8678L51.8605 11.5414C51.3146 11.4242 50.4138 11.3314 50.5333 10.678C50.6655 9.95545 51.6495 9.74489 52.2979 9.74489C53.8903 9.74489 55.2157 10.3279 56.3476 11.0742L59.1708 6.57436C57.3643 5.5254 55.3213 5.03644 52.9986 5.03644C48.5697 5.03644 43.7399 7.36795 42.9749 11.5414C42.4702 14.2927 44.6316 15.7615 47.4396 16.205L48.8821 16.4373C49.536 16.5551 50.4957 16.6242 50.3501 17.4165C50.2045 18.2088 48.9968 18.4655 48.267 18.4655C46.5655 18.4655 45.1047 17.7429 43.9443 16.8572L43.6137 16.6005L40.4357 21.5669ZM89.6591 5.75899C88.1789 5.29243 86.4968 5.03644 84.822 5.03644C78.8541 5.03644 73.4298 9.1401 72.489 14.2697C71.5693 19.2828 75.3928 23.1765 81.1993 23.1765C82.5217 23.1765 85.3145 22.9666 86.5939 22.477L88.0158 15.9023C86.6424 16.9045 85.178 17.5343 83.4765 17.5343C81.263 17.5343 79.6184 16.0418 79.9739 14.1078C80.3245 12.1954 82.4125 10.6806 84.6266 10.6806C86.3009 10.6806 87.636 11.4966 88.6503 12.4534L89.6591 5.75899ZM101.507 5.03644C95.3236 5.03644 89.5881 8.62619 88.5745 14.1526C87.5402 19.7941 91.9703 23.1759 98.182 23.1759C104.392 23.1759 110.063 19.7948 111.097 14.1526C112.109 8.62683 107.691 5.03644 101.507 5.03644ZM100.447 10.8182C102.796 10.8182 103.969 12.3798 103.626 14.2447C103.259 16.2498 101.439 17.6258 99.198 17.6258C96.9566 17.6258 95.6427 16.2505 96.0103 14.2447C96.3524 12.381 98.0976 10.8182 100.447 10.8182ZM22.1209 1.81343C20.2737 1.24959 18.1773 0.939819 16.0887 0.939819C8.64501 0.939819 1.87948 5.8998 0.706902 12.1001C-0.438986 18.1596 4.32898 22.8655 11.5701 22.8655C13.2207 22.8655 16.7044 22.612 18.298 22.0207L20.0711 14.0726C18.3599 15.2847 16.5322 16.0457 14.4096 16.0457C11.6477 16.0457 9.59799 14.2415 10.0402 11.9017C10.4776 9.59131 13.0812 7.75836 15.8424 7.75836C17.9304 7.75836 19.5961 8.74522 20.8597 9.90042L22.1209 1.81343Z" fill="#D72E2B"/>
<path d="M106.543 22.0418C106.654 21.4281 107.303 20.9333 108.009 20.9333C108.71 20.9333 109.185 21.4281 109.074 22.0418C108.962 22.6594 108.31 23.1541 107.609 23.1541C106.903 23.1541 106.433 22.6588 106.543 22.0418ZM108.744 22.0418C108.833 21.5477 108.497 21.2233 107.956 21.2233C107.406 21.2233 106.962 21.5477 106.874 22.0418C106.785 22.5365 107.111 22.8642 107.661 22.8642C108.202 22.8642 108.655 22.5372 108.744 22.0418ZM108.293 22.6223H107.966L107.761 22.1301H107.547L107.458 22.6223H107.18L107.39 21.4601H108.031C108.313 21.4601 108.466 21.5426 108.418 21.8159C108.381 22.0149 108.233 22.1173 108.063 22.1314L108.293 22.6223ZM107.888 21.9081C108.027 21.9081 108.147 21.9081 108.17 21.7839C108.188 21.6815 108.068 21.6815 107.929 21.6815H107.628L107.589 21.9081H107.888Z" fill="#D72E2B"/>
</svg>
