<svg width="15" height="14" viewBox="0 0 15 14" fill="none" xmlns="http://www.w3.org/2000/svg">
<path d="M7.54474 11.3965L10.9042 13.5247C11.3337 13.7964 11.8665 13.392 11.7392 12.8906L10.7689 9.07286C10.7415 8.96651 10.7447 8.85459 10.778 8.74997C10.8114 8.64534 10.8736 8.55226 10.9575 8.48141L13.9701 5.97445C14.3655 5.64516 14.162 4.98818 13.6531 4.95514L9.71922 4.69938C9.61331 4.69187 9.51171 4.65443 9.42624 4.59141C9.34078 4.5284 9.27497 4.44241 9.23648 4.34345L7.76907 0.648805C7.72911 0.543805 7.65818 0.45343 7.56569 0.389663C7.47319 0.325896 7.3635 0.291748 7.25115 0.291748C7.13881 0.291748 7.02912 0.325896 6.93662 0.389663C6.84413 0.45343 6.7732 0.543805 6.73324 0.648805L5.26583 4.34345C5.22742 4.44251 5.16164 4.52861 5.07617 4.59172C4.99071 4.65484 4.88906 4.69236 4.78308 4.69992L0.849196 4.95567C0.340876 4.98818 0.136269 5.64516 0.532162 5.97445L3.54479 8.48195C3.6286 8.55274 3.69076 8.64574 3.72413 8.75026C3.75749 8.85478 3.76071 8.96659 3.73341 9.07286L2.83399 12.6135C2.68107 13.2151 3.321 13.7005 3.83571 13.3739L6.9581 11.3965C7.04586 11.3407 7.14769 11.3111 7.25169 11.3111C7.35568 11.3111 7.45752 11.3407 7.54528 11.3965H7.54474Z" fill="#DBDBDC"/>
</svg>
