<svg width="104" height="72" viewBox="0 0 104 72" fill="none" xmlns="http://www.w3.org/2000/svg">
<g clip-path="url(#clip0_202_1593)">
<rect width="103.663" height="70.4124" transform="translate(0.175781 0.892883)" fill="white"/>
<path d="M49.3153 70.8006C49.3153 70.5063 49.4971 69.2613 49.7017 68.0163L50.088 65.7527L51.7472 65.6395C53.6791 65.5037 54.0655 65.1868 54.0655 63.7155C54.0655 63.2175 53.4063 58.826 52.5881 53.9819C51.7699 49.1603 51.1108 45.0632 51.1108 44.8821C51.1108 44.6331 51.7926 44.5878 54.7018 44.6331L58.2701 44.701L58.8384 50.4053C59.1565 53.5291 59.4747 56.1547 59.5657 56.2455C59.6338 56.3134 59.9066 55.838 60.1566 55.1816C60.4068 54.5254 61.4975 51.8993 62.543 49.3414L64.4749 44.701L67.9296 44.6331C71.1797 44.5878 71.3615 44.5878 71.2479 44.9953C70.9524 45.8554 61.5657 65.7074 60.793 67.0656C58.8156 70.5063 57.2247 71.2986 52.3154 71.2986C49.338 71.2986 49.2926 71.2986 49.3153 70.8006Z" fill="#D72E2B"/>
<path d="M36.6778 64.8698C32.9959 63.9872 30.9049 61.4293 30.7003 57.5582C30.3821 51.6957 33.7686 46.5117 39.1324 44.6329C40.5643 44.1573 41.0416 44.0897 43.1326 44.1802C45.1099 44.2705 45.769 44.3837 46.8373 44.8593C48.5191 45.6287 49.8601 47.0097 50.7238 48.8433C51.4056 50.292 51.4511 50.4731 51.4511 53.3026V56.2453L44.6326 56.3585L37.8142 56.4717L37.8369 57.5582C37.8369 58.4637 37.9733 58.758 38.5415 59.3239C39.7916 60.5917 41.9734 60.5238 43.0417 59.188C43.519 58.6221 43.5417 58.6221 46.9736 58.6221C48.8828 58.6221 50.4283 58.6901 50.4283 58.758C50.4283 59.1428 49.1328 60.9989 48.1555 61.9723C45.6099 64.5528 40.587 65.8205 36.6778 64.8698ZM44.769 52.0123C44.9963 49.5452 42.4735 48.1642 40.2007 49.4997C39.5643 49.8619 38.7461 50.9711 38.4961 51.786L38.3597 52.284H41.5416C43.9508 52.284 44.7463 52.2161 44.769 52.0123ZM73.8837 64.8245C72.2245 64.3944 71.4742 63.9641 70.2242 62.7419C68.6787 61.2477 68.088 59.6181 68.088 56.9244C68.088 50.9937 71.6108 46.0817 76.9974 44.4971C79.5427 43.7501 83.2703 44.1576 85.1795 45.3799C87.9069 47.1229 89.4069 50.8353 88.9749 54.8645L88.793 56.3585H82.1792C78.5197 56.3585 75.4062 56.4491 75.2242 56.5622C74.838 56.8112 75.0423 58.1918 75.588 59.007C76.6108 60.5462 79.1563 60.6141 80.52 59.0973C80.9291 58.6446 81.1789 58.6219 84.3383 58.6219C86.5202 58.6219 87.7021 58.7125 87.7021 58.8483C87.7021 59.3463 86.1338 61.5194 85.1793 62.3343C82.4749 64.6887 77.4747 65.7978 73.8837 64.8245ZM82.2476 51.6728C82.2476 50.1335 80.4975 48.7075 78.9747 48.9793C77.4974 49.2736 76.3158 50.3146 75.9974 51.6728L75.8383 52.284H82.2476V51.6728ZM99.7027 64.5981C99.0209 64.2357 98.3845 63.2171 98.3845 62.4703C98.3845 61.0442 99.6346 59.754 100.998 59.754C101.862 59.754 102.885 60.3425 103.271 61.1121C104.476 63.421 101.998 65.8431 99.7027 64.5981ZM102.18 64.168C102.453 63.9869 102.794 63.4663 102.93 63.0362C103.43 61.5422 102.044 59.935 100.544 60.2972C99.4527 60.5686 98.9073 61.5649 99.0436 62.923C99.0664 63.1041 99.3845 63.5342 99.7707 63.8964C100.521 64.5755 101.43 64.6887 102.18 64.168Z" fill="#D72E2B"/>
<path d="M99.9747 62.3798V60.8858H100.748C101.725 60.8858 101.952 61.2027 101.975 62.6515C101.998 63.8738 101.679 64.236 101.429 63.2626C101.247 62.5156 100.361 62.4477 100.475 63.1947C100.52 63.4437 100.407 63.7154 100.27 63.7606C100.043 63.8512 99.9747 63.4664 99.9747 62.3798ZM101.452 61.7913C101.452 61.6102 101.225 61.4291 100.952 61.3838C100.452 61.3159 100.225 61.746 100.588 62.1082C100.861 62.3572 101.452 62.1535 101.452 61.7913ZM3.65318 64.5529L0.175781 64.485L0.31215 63.7606C0.493974 62.6967 3.03952 46.7155 3.72136 42.3241C4.03955 40.2642 4.38047 38.2948 4.47139 37.91L4.65321 37.2309H14.4036L14.6536 39.7209C14.7899 41.1017 15.1536 44.7914 15.449 47.9379C15.7445 51.0617 16.04 53.6422 16.1309 53.6422C16.1991 53.6422 17.79 49.9525 19.6537 45.4479L23.063 37.2309L27.8131 37.163C30.4268 37.1404 32.6315 37.1857 32.7224 37.2762C32.836 37.3894 32.6087 39.2906 32.2451 41.5318C31.8814 43.773 31.4269 46.625 31.2451 47.87C31.0405 49.115 30.6769 51.4012 30.4268 52.9631C30.1996 54.525 29.7223 57.4225 29.4041 59.4145C29.0859 61.4065 28.7677 63.3758 28.6995 63.7833L28.5631 64.5076H24.9494C22.1084 64.5076 21.3356 64.4397 21.3356 64.2134C21.3356 63.1495 23.2902 51.9445 23.7448 50.3824C24.0175 49.3866 24.0175 48.8431 23.7221 49.1374C23.6766 49.2055 22.4266 52.103 20.9947 55.5887C19.5401 59.0523 18.131 62.4701 17.8355 63.1492L17.3127 64.3942L14.449 64.4621C11.0853 64.5301 11.4944 65.0054 11.108 60.5913C10.8352 57.377 9.99431 48.6167 9.94885 48.4357C9.85794 48.0508 9.56247 49.6354 9.53975 50.5861C9.51702 51.6274 8.94882 55.6793 8.01697 61.6779C7.78969 63.0587 7.51695 64.281 7.38058 64.3942C7.22148 64.5303 5.74416 64.5982 3.65318 64.5529ZM88.4062 63.4437C88.4971 62.8326 88.7925 60.9311 89.0653 59.1881C89.338 57.4451 89.6789 55.2041 89.8608 54.2081C90.0199 53.2121 90.4517 50.6316 90.7926 48.5038L91.4063 44.5877H97.9747L97.8156 45.5611C97.7474 46.0817 97.6338 46.874 97.5656 47.3041L97.4519 48.0963L97.861 47.5304C98.0654 47.2135 98.7702 46.4439 99.3838 45.8327C100.565 44.6556 101.747 44.135 103.134 44.135H103.839V46.3533C103.839 47.5531 103.725 49.3413 103.566 50.3147L103.293 52.0803L102.384 52.0353C100.679 51.9447 100.066 52.0579 99.0884 52.6915C97.5883 53.6649 96.9292 55.2494 96.2246 59.6408C95.9064 61.6328 95.5882 63.5343 95.52 63.8965L95.3837 64.5076H88.2243L88.4062 63.4437ZM39.609 28.7423C35.2225 27.8595 32.8815 24.283 33.4042 19.2804C34.1088 12.6027 39.0635 7.91696 45.4046 7.91696C49.5184 7.91696 52.2458 9.63732 53.6095 13.1007C54.155 14.4815 54.4504 17.4468 54.2004 19.0766L54.0413 20.1405H40.4272V21.046C40.4272 22.9248 41.5409 23.9887 43.4728 23.9887C44.3364 23.9887 44.6546 23.8529 45.4046 23.1964L46.2683 22.4042H53.2004L52.5867 23.4907C50.2685 27.4973 44.7228 29.7383 39.609 28.7423ZM47.4729 15.2738C47.4729 14.2325 46.3592 12.9649 45.291 12.7611C43.6546 12.4669 41.6318 13.7798 41.2227 15.4548L41.0636 16.066H47.4729V15.2738ZM59.246 28.7423C57.3142 28.2443 55.8598 26.8862 55.0643 24.781C54.4961 23.2644 54.4731 19.0993 55.0413 16.9715C55.6777 14.5494 57.1551 11.8104 58.5872 10.3843C60.2918 8.70923 61.6782 8.05278 63.8146 7.96223C65.9508 7.84905 67.0418 8.16596 68.1557 9.27514L69.0193 10.1353L69.2696 8.7545C69.3832 7.98487 69.7241 5.90234 69.9967 4.13671L70.5192 0.899719H74.1102C76.0875 0.899719 77.7012 0.967629 77.7012 1.08081C77.7012 1.2619 75.3148 16.315 74.1784 23.2417C73.7466 25.8675 73.3829 28.0859 73.3829 28.1538C73.3829 28.3122 67.1327 28.3349 66.9736 28.1764C66.9054 28.1085 66.9281 27.6558 67.019 27.1578C67.11 26.6598 67.1327 26.2523 67.0645 26.2523C67.019 26.2523 66.5645 26.6145 66.0872 27.0446C64.7006 28.2896 63.4735 28.8102 61.6779 28.8782C60.8143 28.9234 59.7006 28.8555 59.246 28.7423ZM65.8372 22.5853C67.6784 21.4761 68.6555 17.1299 67.5191 15.0248C67.1552 14.3457 66.0645 13.9382 65.0417 14.1419C63.3144 14.4588 62.11 16.5187 61.8598 19.5973C61.6098 22.8343 63.2916 24.1245 65.8372 22.5853ZM0.42579 27.6784C0.42579 27.3162 0.584887 26.1844 0.766711 25.1205C0.948536 24.0566 1.76675 18.9635 2.58496 13.8024C3.40317 8.64132 4.19865 3.63871 4.35775 2.71062L4.63048 1.0129L14.2445 0.944991C23.6084 0.899719 23.8357 0.89972 23.8357 1.32981C23.8357 1.57881 23.6312 2.98226 23.3811 4.45361C23.1311 5.92497 22.9266 7.1926 22.9266 7.30578C22.9266 7.39633 20.4265 7.46424 17.3582 7.46424H11.7898L11.6989 7.98487C11.5398 8.61869 11.108 11.6519 11.108 11.9689C11.108 12.1273 12.5399 12.2179 15.449 12.2179H19.8128L19.6537 13.5308C19.5856 14.2325 19.3583 15.7038 19.1537 16.813L18.7901 18.7824H9.99431L9.85794 19.5294C9.78976 19.9142 9.44883 22.042 9.08518 24.2151L8.47153 28.1764L4.44866 28.2443L0.42579 28.2896V27.6784Z" fill="#D72E2B"/>
<path d="M18.723 27.7916C18.7912 27.4974 19.2458 24.6678 19.7458 21.4988C20.2458 18.3297 20.8822 14.4589 21.1322 12.897C21.3822 11.3351 21.6322 9.68262 21.7004 9.2299L21.8368 8.36972H28.4279L28.2915 9.11672C28.2234 9.50153 28.1097 10.2938 28.0415 10.8597L27.9052 11.8783L28.3143 11.3124C30.0416 8.91299 31.6553 7.91699 33.769 7.91699C35.019 7.91699 35.019 7.91699 34.9054 8.55081C34.8372 8.89035 34.5418 10.656 34.269 12.4895L33.769 15.7944L32.2689 15.7718C29.7234 15.7265 28.1552 16.9941 27.3824 19.7105C27.1097 20.6386 25.8824 27.6332 25.8824 28.1765C25.8824 28.2444 24.2459 28.2896 22.2459 28.2896H18.6094L18.723 27.7916Z" fill="#D72E2B"/>
</g>
<defs>
<clipPath id="clip0_202_1593">
<rect width="103.663" height="70.4124" fill="white" transform="translate(0.175781 0.892883)"/>
</clipPath>
</defs>
</svg>
