<svg width="10" height="10" viewBox="0 0 10 10" fill="none" xmlns="http://www.w3.org/2000/svg">
<path d="M5.29518 7.63017L7.49715 9.02505C7.77864 9.20316 8.12789 8.93808 8.04442 8.60945L7.40845 6.10712C7.39048 6.03742 7.39255 5.96406 7.41443 5.89549C7.4363 5.82691 7.47708 5.7659 7.53208 5.71946L9.5067 4.07628C9.76584 3.86044 9.63242 3.42983 9.2989 3.40817L6.72044 3.24054C6.65102 3.23561 6.58442 3.21107 6.5284 3.16977C6.47239 3.12847 6.42925 3.07211 6.40402 3.00724L5.44221 0.585595C5.41602 0.516773 5.36953 0.457537 5.30891 0.415741C5.24828 0.373944 5.17638 0.351562 5.10275 0.351562C5.02911 0.351563 4.95721 0.373944 4.89659 0.415741C4.83596 0.457537 4.78947 0.516773 4.76328 0.585595L3.80147 3.00724C3.77629 3.07217 3.73318 3.12861 3.67716 3.16997C3.62114 3.21134 3.55452 3.23593 3.48505 3.24089L0.906595 3.40852C0.573418 3.42983 0.439309 3.86044 0.698796 4.07628L2.67341 5.71981C2.72835 5.76622 2.7691 5.82717 2.79096 5.89568C2.81283 5.96419 2.81494 6.03747 2.79705 6.10712L2.20752 8.42784C2.10729 8.82214 2.52673 9.1403 2.8641 8.92621L4.91066 7.63017C4.96818 7.5936 5.03493 7.57418 5.1031 7.57418C5.17126 7.57418 5.23801 7.5936 5.29553 7.63017H5.29518Z" fill="#FF8E36"/>
</svg>
