<svg width="50" height="50" viewBox="0 0 50 50" fill="none" xmlns="http://www.w3.org/2000/svg">
<circle cx="25" cy="25" r="25" fill="#454448"/>
<path d="M17.3749 15.6888C17.3746 16.4016 17.0911 17.085 16.5868 17.5887C16.0826 18.0925 15.3989 18.3753 14.6861 18.3749C13.9734 18.3746 13.2899 18.0911 12.7862 17.5868C12.2824 17.0826 11.9996 16.3989 12 15.6861C12.0004 14.9734 12.2838 14.2899 12.7881 13.7862C13.2923 13.2824 13.976 12.9996 14.6888 13C15.4016 13.0004 16.085 13.2838 16.5887 13.7881C17.0925 14.2923 17.3753 14.976 17.3749 15.6888ZM17.4555 20.365H12.0806V37.1885H17.4555V20.365ZM25.9479 20.365H20.5999V37.1885H25.8942V28.3602C25.8942 23.4421 32.3038 22.9853 32.3038 28.3602V37.1885H37.6115V26.5327C37.6115 18.2419 28.1248 18.551 25.8942 22.6225L25.9479 20.365Z" fill="white"/>
</svg>
