<svg width="192" height="72" viewBox="0 0 192 72" fill="none" xmlns="http://www.w3.org/2000/svg">
<path d="M28.1568 42.5898V30.9143H31.2275C32.8928 30.9143 34.2028 31.4068 35.1574 32.3917C36.1226 33.3765 36.6052 34.8326 36.6052 36.76C36.6052 38.6133 36.1332 40.0482 35.1892 41.0649C34.2558 42.0815 32.9299 42.5898 31.2116 42.5898H28.1568ZM29.1592 41.732H31.0048C32.4155 41.732 33.5292 41.3349 34.346 40.5407C35.1627 39.7464 35.571 38.4862 35.571 36.76C35.571 35.0127 35.168 33.7472 34.3619 32.9635C33.5557 32.1693 32.4473 31.7721 31.0366 31.7721H29.1592V41.732Z" fill="white"/>
<path d="M39.1031 42.5898V30.9143H46.2946V31.7721H40.1055V36.1246H45.7059V36.9665H40.1055V41.732H46.4537V42.5898H39.1031Z" fill="white"/>
<path d="M49.9221 38.2532H54.6316L53.0565 33.9007C52.9822 33.6783 52.8549 33.3289 52.6746 32.8523C52.5049 32.3652 52.3882 32.0263 52.3246 31.8357H52.245C52.192 31.9733 52.0753 32.2963 51.895 32.8047C51.7253 33.3024 51.6033 33.6677 51.5291 33.9007L49.9221 38.2532ZM47.2174 42.5898L51.6564 30.9143H52.9133L57.3363 42.5898H56.2226L54.9498 39.0634H49.6198L48.3311 42.5898H47.2174Z" fill="white"/>
<path d="M59.0547 42.5898V30.9143H60.057V41.732H65.7211V42.5898H59.0547Z" fill="white"/>
<path d="M67.6144 42.5898V30.9143H68.6168V42.5898H67.6144Z" fill="white"/>
<path d="M71.242 36.76C71.242 34.8538 71.6981 33.3553 72.6102 32.2646C73.5224 31.1738 74.7051 30.6284 76.1582 30.6284C77.0598 30.6284 77.8182 30.8773 78.4334 31.375C79.0592 31.8622 79.5206 32.434 79.8176 33.0906L78.9585 33.4083C78.2796 32.1269 77.3409 31.4862 76.1423 31.4862C74.965 31.4862 74.0263 31.9681 73.3262 32.9317C72.6262 33.8954 72.2761 35.1715 72.2761 36.76C72.2761 38.3803 72.6315 39.6617 73.3421 40.6042C74.0528 41.5361 74.9862 42.0021 76.1423 42.0021C76.8742 42.0021 77.5 41.8062 78.0197 41.4143C78.5395 41.0225 78.9372 40.5301 79.213 39.937L80.1199 40.2388C79.7699 40.9907 79.2661 41.6208 78.6084 42.1292C77.9614 42.6269 77.1447 42.8758 76.1582 42.8758C74.7051 42.8758 73.5224 42.3357 72.6102 41.2555C71.6981 40.1647 71.242 38.6662 71.242 36.76Z" fill="white"/>
<path d="M82.3633 42.5898V30.9143H83.3656V42.5898H82.3633Z" fill="white"/>
<path d="M85.9908 36.76C85.9908 34.9174 86.4204 33.4348 87.2795 32.3122C88.1493 31.1897 89.3108 30.6284 90.7639 30.6284C92.2276 30.6284 93.3838 31.195 94.2324 32.3281C95.0915 33.4507 95.5211 34.9333 95.5211 36.7759C95.5211 38.6292 95.0915 40.1118 94.2324 41.2237C93.3732 42.3251 92.217 42.8758 90.7639 42.8758C89.3002 42.8758 88.1387 42.3198 87.2795 41.2078C86.4204 40.0959 85.9908 38.6133 85.9908 36.76ZM87.025 36.76C87.025 38.3485 87.3591 39.6193 88.0273 40.5724C88.6956 41.5255 89.6077 42.0021 90.7639 42.0021C91.8988 42.0021 92.8004 41.5361 93.4687 40.6042C94.1475 39.6617 94.4869 38.3856 94.4869 36.7759C94.4869 35.1662 94.1581 33.8848 93.5005 32.9317C92.8428 31.9681 91.9307 31.4862 90.7639 31.4862C89.6184 31.4862 88.7062 31.9628 88.0273 32.9159C87.3591 33.869 87.025 35.1503 87.025 36.76Z" fill="white"/>
<path d="M98.1304 38.4438V30.9143H99.1327V38.3962C99.1327 39.5929 99.4138 40.493 99.976 41.0966C100.538 41.7003 101.281 42.0021 102.203 42.0021C103.147 42.0021 103.895 41.695 104.447 41.0807C105.009 40.4665 105.29 39.5717 105.29 38.3962V30.9143H106.292V38.4438C106.292 39.8417 105.942 40.9325 105.242 41.7161C104.542 42.4892 103.529 42.8758 102.203 42.8758C100.909 42.8758 99.907 42.4945 99.1964 41.732C98.4857 40.959 98.1304 39.8629 98.1304 38.4438Z" fill="white"/>
<path d="M108.743 40.5248L109.681 40.1753C110.01 40.7366 110.461 41.1814 111.034 41.5096C111.606 41.8379 112.269 42.0021 113.022 42.0021C113.892 42.0021 114.598 41.7903 115.138 41.3667C115.69 40.9431 115.966 40.3606 115.966 39.6193C115.966 39.3228 115.902 39.0528 115.775 38.8092C115.658 38.555 115.515 38.3485 115.345 38.1897C115.186 38.0202 114.953 37.8561 114.645 37.6972C114.348 37.5384 114.078 37.4166 113.834 37.3319C113.6 37.2366 113.293 37.1254 112.911 36.9983C112.561 36.8818 112.296 36.7971 112.116 36.7441C111.935 36.6806 111.686 36.5853 111.368 36.4582C111.05 36.3205 110.8 36.1988 110.62 36.0929C110.45 35.987 110.254 35.8493 110.031 35.6798C109.809 35.4998 109.639 35.3198 109.522 35.1398C109.405 34.9491 109.305 34.7267 109.22 34.4726C109.135 34.2078 109.093 33.9272 109.093 33.6307C109.093 32.7199 109.437 31.9945 110.127 31.4544C110.827 30.9038 111.766 30.6284 112.943 30.6284C113.813 30.6284 114.576 30.8296 115.234 31.232C115.902 31.6239 116.38 32.1163 116.666 32.7094L115.807 33.0112C115.16 31.9945 114.194 31.4862 112.911 31.4862C112.041 31.4862 111.357 31.6821 110.859 32.074C110.371 32.4658 110.127 32.9847 110.127 33.6307C110.127 34.1072 110.302 34.5202 110.652 34.8697C111.012 35.2192 111.357 35.468 111.686 35.6163C112.015 35.754 112.556 35.9446 113.309 36.1882C113.383 36.2199 113.441 36.2411 113.484 36.2517C113.897 36.3894 114.248 36.5165 114.534 36.6329C114.82 36.7388 115.133 36.8871 115.473 37.0777C115.812 37.2683 116.083 37.4749 116.284 37.6972C116.486 37.909 116.655 38.1791 116.793 38.5074C116.931 38.8251 117 39.1798 117 39.5717C117 40.6095 116.639 41.4196 115.918 42.0021C115.197 42.5845 114.221 42.8758 112.991 42.8758C111.983 42.8758 111.118 42.664 110.397 42.2404C109.687 41.8168 109.135 41.2449 108.743 40.5248Z" fill="white"/>
<path d="M49.6093 54.7822L53.9512 51.4537L61.3927 61.13L57.0508 64.4585C56.1807 65.1256 55.3833 65.5933 54.6586 65.8618C53.9405 66.1388 53.256 66.2192 52.6051 66.1029C51.9542 65.9866 51.3208 65.6793 50.7047 65.1809C50.08 64.6891 49.4336 64.0088 48.7655 63.1401C48.0974 62.2714 47.6028 61.4679 47.2816 60.7297C46.9584 60.0068 46.8246 59.3164 46.8801 58.6586C46.9356 58.0007 47.1869 57.357 47.6338 56.7273C48.0807 56.0976 48.7392 55.4492 49.6093 54.7822ZM55.0941 62.021L56.3863 61.0304L52.7549 56.3083L51.4626 57.299C51.0319 57.6292 50.7624 57.9109 50.6543 58.1442C50.5441 58.3927 50.6247 58.6933 50.8959 59.046L53.2573 62.1166C53.5285 62.4692 53.7953 62.6202 54.0576 62.5695C54.3178 62.5341 54.6634 62.3512 55.0941 62.021Z" fill="white"/>
<path d="M34.8185 67.1817L34.5518 64.3639L38.4446 63.9966L38.3051 62.5229L33.5365 62.9729L33.2422 59.8636L41.9036 59.0464L43.0532 71.192L34.4891 72L34.6814 68.8448L38.8661 68.45L38.7113 66.8144L34.8185 67.1817Z" fill="white"/>
<path d="M25.7257 59.6556L26.9775 58.1136L30.6746 59.9332L22.437 69.4803L17.0155 66.8121L19.5833 54.4744L23.2804 56.294L22.8323 58.2316L25.7257 59.6556ZM21.2881 64.7438L21.4781 64.8373L23.7069 62.1258L22.0994 61.3347L21.2881 64.7438Z" fill="white"/>
<path d="M10.8881 47.3909L13.4803 45.6428L17.8574 52.113L7.73172 58.9414L5.54313 55.7064L13.0767 50.626L10.8881 47.3909Z" fill="white"/>
<path d="M11.9736 38.9598L12.7535 42.7853L0.779911 45.2186L0 41.3932L11.9736 38.9598Z" fill="white"/>
<path d="M9.8256 26.3593L13.1058 26.7552C13.2615 27.6418 13.2119 28.6845 12.957 29.8831C12.7157 31.0182 12.3939 31.9311 11.9917 32.6218C11.5788 33.3103 11.0711 33.818 10.4687 34.1448C9.86623 34.4716 9.15272 34.6419 8.32815 34.6556C7.50583 34.6587 6.55813 34.5465 5.48504 34.3191C4.44382 34.0984 3.55232 33.8263 2.81055 33.5028C2.06041 33.1665 1.47014 32.731 1.03975 32.1963C0.59873 31.6594 0.322095 31.0022 0.209845 30.2245C0.0998502 29.4363 0.163261 28.4853 0.400077 27.3715C0.451951 27.1275 0.5254 26.8604 0.620425 26.5701C0.707081 26.267 0.802106 25.9767 0.9055 25.6993C1.01115 25.4113 1.12291 25.1468 1.24079 24.9057C1.3503 24.6517 1.45916 24.4531 1.56736 24.3097L4.37798 25.5041C4.01693 26.3144 3.76536 27.0537 3.62327 27.722C3.47667 28.4115 3.43893 28.9024 3.51004 29.1946C3.58115 29.4868 3.80795 29.6735 4.19044 29.7545L9.19467 30.8151C9.29966 30.5824 9.39404 30.3474 9.47779 30.1102C9.55316 29.8601 9.61905 29.6025 9.67543 29.3373C9.90097 28.2765 9.95103 27.2839 9.8256 26.3593Z" fill="white"/>
<path d="M17.2972 20.9466L15.028 24.1258L5.07709 17.0458L7.34631 13.8666L17.2972 20.9466Z" fill="white"/>
<path d="M16.3889 12.6272C15.8692 11.6381 15.5045 10.7454 15.2946 9.94909C15.0893 9.13818 15.0628 8.39898 15.215 7.7315C15.3768 7.05898 15.7267 6.44101 16.2647 5.8776C16.8027 5.31418 17.5526 4.78061 18.5145 4.27688C19.4859 3.7681 20.3519 3.4554 21.1124 3.33877C21.8825 3.21711 22.5858 3.28348 23.2224 3.5379C23.8685 3.78729 24.4625 4.22928 25.0045 4.86388C25.5509 5.48385 26.084 6.28839 26.6037 7.27752C27.0982 8.21863 27.4551 9.0848 27.6746 9.87603C27.889 10.6577 27.9226 11.387 27.7755 12.0641C27.638 12.7362 27.3004 13.366 26.7629 13.9537C26.2299 14.5267 25.4633 15.0751 24.463 15.599C23.4627 16.1229 22.5701 16.4434 21.7853 16.5605C21.0052 16.663 20.2943 16.5822 19.6527 16.3181C19.0207 16.0491 18.4436 15.6043 17.9214 14.9839C17.3942 14.3539 16.8833 13.5683 16.3889 12.6272ZM19.1652 8.87713L21.5265 13.3714L22.9692 12.6158C23.4502 12.3639 23.7639 12.1323 23.9104 11.9209C24.0614 11.6948 24.0335 11.3849 23.8267 10.9912L21.4654 6.49692L20.0082 7.26008C19.5465 7.50187 19.2402 7.73579 19.0891 7.96185C18.933 8.17831 18.9584 8.4834 19.1652 8.87713Z" fill="white"/>
<path d="M33.958 0L37.8441 0.432279L36.8284 9.53386L38.2047 9.68696C38.7013 9.74219 39.0431 9.71475 39.2303 9.60463C39.4282 9.49572 39.5513 9.22571 39.5994 8.79461L40.4996 0.72767L44.3857 1.15995L43.6262 7.96593C43.5107 9.00056 43.3431 9.86573 43.1234 10.5614C42.9145 11.2583 42.5905 11.8115 42.1514 12.2209C41.7242 12.6208 41.1598 12.8799 40.4581 12.9982C39.7564 13.1166 38.8658 13.1157 37.7863 12.9956C36.7069 12.8755 35.8379 12.6807 35.1795 12.411C34.5211 12.1414 34.0223 11.764 33.683 11.2789C33.3545 10.795 33.1597 10.1896 33.0988 9.46268C33.0498 8.72618 33.0831 7.84061 33.1985 6.80598L33.958 0Z" fill="white"/>
<path d="M46.2619 14.366L48.7208 12.2092C49.4655 13.1868 50.2137 13.9791 50.9655 14.5859C51.3455 14.8927 51.6826 15.1578 51.9766 15.3812C52.2858 15.6029 52.5682 15.789 52.8235 15.9393L53.4381 15.1804L52.162 13.962C51.5933 13.4053 51.16 12.8882 50.8622 12.4108C50.5644 11.9333 50.3879 11.4701 50.3325 11.021C50.2925 10.5703 50.3575 10.1277 50.5277 9.69336C50.7132 9.25737 50.9971 8.80326 51.3795 8.33102C51.9053 7.6817 52.4099 7.19655 52.8933 6.87557C53.3836 6.54615 53.8824 6.37005 54.3897 6.34726C54.9038 6.31604 55.4375 6.43312 55.9908 6.69848C56.5526 6.97066 57.1713 7.37947 57.847 7.92491C59.19 9.00896 60.3038 10.1172 61.1885 11.2497L58.8417 13.3716C58.0186 12.4562 57.3242 11.7701 56.7583 11.3133C56.1924 10.8565 55.6905 10.4931 55.2525 10.2233L54.6482 10.9696L55.6558 11.9503C56.2684 12.5564 56.7337 13.1202 57.0516 13.6418C57.3763 14.1549 57.5714 14.6471 57.6368 15.1182C57.7106 15.5962 57.6625 16.0524 57.4923 16.4867C57.3305 16.9279 57.0687 17.372 56.7068 17.8189C56.1878 18.4598 55.6663 18.9313 55.1423 19.2335C54.6182 19.5356 54.1458 19.7051 53.7249 19.7419C53.3804 19.7706 53.0202 19.7238 52.6443 19.6017C52.2751 19.471 51.9096 19.3015 51.5477 19.093C51.1858 18.8845 50.8367 18.6515 50.5005 18.3941C50.1658 18.1518 49.8676 17.9251 49.6058 17.7137C48.947 17.1819 48.3408 16.6368 47.7874 16.0785C47.2339 15.5201 46.7254 14.9493 46.2619 14.366Z" fill="white"/>
</svg>
