<svg width="112" height="88" viewBox="0 0 112 88" fill="none" xmlns="http://www.w3.org/2000/svg">
<g clip-path="url(#clip0_202_1499)">
<path d="M109.891 86.8529L109.86 21.857C49.3402 -22.8371 1.48633 21.8703 1.48633 21.8703L1.52178 86.8041L109.891 86.8529Z" fill="#FFDF1B"/>
<path d="M110.866 87.8279L0.551079 87.7747L0.515625 21.4449L0.825847 21.1568C1.30891 20.7048 49.9738 -23.586 110.44 21.077L110.835 21.3695L110.866 87.8279ZM2.49661 85.8336L108.92 85.8824L108.889 22.3534C52.4246 -19.0213 6.64915 18.6529 2.46116 22.3046L2.49661 85.8336ZM30.2171 18.7947C29.4992 18.7947 28.9142 18.2141 28.9142 17.4918C28.9142 16.7694 29.4992 16.1888 30.2171 16.1888C30.9351 16.1888 31.5201 16.7694 31.5201 17.4918C31.5156 18.2141 30.9351 18.7947 30.2171 18.7947ZM35.5707 19.4107C36.2886 19.4107 36.8736 18.8257 36.8736 18.1078C36.8736 17.3898 36.2886 16.8048 35.5707 16.8048C34.8527 16.8048 34.2678 17.3898 34.2678 18.1078C34.2678 18.8257 34.8527 19.4107 35.5707 19.4107ZM40.8489 21.0815C41.5668 21.0815 42.1518 20.5009 42.1518 19.7785C42.1518 19.0606 41.5668 18.4756 40.8489 18.4756C40.1309 18.4756 39.546 19.0606 39.546 19.7785C39.546 20.5009 40.1309 21.0815 40.8489 21.0815ZM45.6839 23.5012C46.4019 23.5012 46.9868 22.9162 46.9868 22.1983C46.9868 21.4803 46.4019 20.8953 45.6839 20.8953C44.966 20.8953 44.381 21.4803 44.381 22.1983C44.3854 22.9162 44.966 23.5012 45.6839 23.5012ZM24.8414 19.4107C25.5638 19.4107 26.1444 18.8257 26.1444 18.1078C26.1444 17.3898 25.5638 16.8048 24.8414 16.8048C24.1235 16.8048 23.5385 17.3898 23.5385 18.1078C23.5385 18.8257 24.1235 19.4107 24.8414 19.4107ZM19.5632 21.0815C20.2812 21.0815 20.8662 20.5009 20.8662 19.7785C20.8662 19.0606 20.2812 18.4756 19.5632 18.4756C18.8453 18.4756 18.2603 19.0606 18.2603 19.7785C18.2647 20.5009 18.8453 21.0815 19.5632 21.0815ZM14.7282 23.5012C15.4462 23.5012 16.0311 22.9162 16.0311 22.1983C16.0311 21.4803 15.4462 20.8953 14.7282 20.8953C14.0103 20.8953 13.4253 21.4803 13.4253 22.1983C13.4253 22.9162 14.0103 23.5012 14.7282 23.5012ZM30.164 18.7371L29.6986 18.6617C29.8316 22.1805 25.4796 22.4331 25.4619 19.0872L24.4337 19.0296C25.5771 22.3578 21.203 23.9134 20.2236 20.7181L19.2929 20.7757C20.7244 23.9931 16.7712 25.8412 15.5171 22.7389L14.7592 23.1334C14.7592 23.1334 17.8038 28.7085 18.9428 30.7515C22.014 28.3761 26.0513 27.2239 30.164 27.2948H30.2083C34.3209 27.2239 38.3538 28.3761 41.4294 30.7515C42.5728 28.7085 45.6174 23.1334 45.6174 23.1334L44.8552 22.7389C43.601 25.8367 39.6523 23.9931 41.0793 20.7757L40.1487 20.7181C39.1648 23.9178 34.7951 22.3622 35.9385 19.0296L34.9059 19.0872C34.8882 22.4331 30.5407 22.1805 30.6736 18.6617L30.2083 18.7371H30.164ZM96.9458 54.2974L96.6622 55.1571C95.4169 59.0836 90.8345 60.8652 88.4724 60.4841C83.5221 59.6819 82.0729 56.0789 82.0729 49.9498C82.0729 44.778 83.1232 40.7008 87.7411 40.067C88.4989 39.9651 89.6734 40.426 89.6734 40.426C89.7664 40.426 91.4593 41.0465 92.8952 43.5327C93.1833 44.1088 94.5217 45.9258 95.0003 47.3617L95.3814 47.5567H97.8721L98.1601 47.3617V39.2294L97.8721 39.0389H95.4789L95.2884 39.2294C95.2884 39.2294 93.6619 41.0509 92.6072 41.0509C92.1241 41.0509 92.1241 41.0509 90.019 39.7125C85.8089 37.0313 75.576 39.9031 75.4652 50.0517C75.3633 59.6819 81.7804 61.6895 86.19 62.0175C90.3957 62.3321 96.6622 60.1384 97.7125 54.2974L97.2339 54.1999H97.4245L96.9458 54.2974ZM13.0619 46.4044C13.0619 64.322 30.4343 63.5951 30.4343 63.5951L32.9781 63.5021C33.1642 63.5021 36.0715 69.2323 40.3481 69.2323C48.5335 69.2323 47.4433 59.4116 47.4433 59.4116C47.4433 59.4116 44.7178 62.4119 42.4399 62.4119C41.1635 62.4119 39.8961 61.4147 39.8961 61.4147C39.8961 61.4147 47.625 57.8693 47.625 46.4044C47.625 23.6652 13.0619 23.6652 13.0619 46.4044ZM38.8945 46.4044C38.8945 54.1334 35.0743 58.6804 35.0743 58.6804C35.0743 58.6804 33.3504 58.2239 31.7993 58.2239C29.5258 58.2239 26.2507 59.4072 26.2507 59.4072C26.2507 59.4072 22.1558 56.1321 22.1558 46.4C22.1602 25.8456 38.8945 25.8456 38.8945 46.4044ZM27.434 60.5904C27.434 60.5904 28.4312 60.227 29.3441 60.227C30.7977 60.227 32.074 61.6806 32.074 61.6806C32.074 61.6806 31.4359 62.4074 30.2526 62.4074C28.9807 62.4119 27.434 60.5904 27.434 60.5904ZM12.5478 67.4951H35.1231C35.1231 67.4951 34.6444 67.0164 34.1703 66.5334C33.6872 66.0548 33.2086 65.4831 33.2086 65.4831H12.5478V67.4951ZM47.5098 65.4831C47.5098 65.4831 47.2217 66.0548 46.8406 66.5334C46.5525 66.9145 46.1714 67.4951 46.1714 67.4951H99.0952V65.4831H47.5098ZM49.4287 39.0389V39.8056C49.4287 39.8056 52.5886 39.8056 52.9697 40.0892C53.3508 40.3773 53.2578 41.8131 53.2578 41.8131V58.6626C53.2578 59.6199 52.398 60.9583 51.2457 60.9583C50.2885 60.9583 49.4287 60.9583 49.4287 60.9583V61.725H64.0756V60.9583C64.0756 60.9583 63.2159 60.9583 62.7372 60.9583C61.3014 60.9583 60.6322 59.5224 60.6322 58.4676V50.3309L60.8272 50.1404C60.8272 50.1404 61.5894 50.0473 62.3561 50.0473C64.3681 50.0473 65.9015 54.1644 65.9015 54.1644L66.2826 54.355H68.5783L68.8663 54.1644V44.8799L68.5783 44.6849H66.2826L65.9015 44.8799C65.9015 44.8799 64.2706 49.2851 62.3561 49.2851C61.7844 49.2851 60.8272 49.192 60.8272 49.192L60.6322 48.997V41.8176C60.6322 41.8176 60.6322 40.5723 60.9202 40.0936C61.0133 39.81 62.068 39.81 62.068 39.81C62.068 39.81 65.9015 39.81 66.2826 39.81C68.0066 39.81 71.2595 47.2775 71.2595 47.2775L71.5475 47.468H73.7501L74.0337 47.2775V39.3269L73.7501 39.0389H49.4287ZM13.2746 77.6969C13.7532 78.4503 14.2806 78.7118 14.972 78.9378C15.0473 78.9644 15.1714 78.9644 15.1714 79.1062C15.1714 79.1417 15.1625 79.1904 15.1537 79.2126C15.1448 79.3101 15.1359 79.381 15.1359 79.4785C15.1359 80.1122 15.5437 80.6352 15.9292 80.9011C16.3724 81.1847 16.8732 81.3088 17.374 81.3088C17.6088 81.3088 18.8143 81.2157 18.8143 80.7504C18.8143 80.6175 18.7478 80.5687 18.6592 80.5687C18.5218 80.5687 18.3401 80.6662 18.1628 80.6662C17.6088 80.6662 17.4271 80.4003 17.1125 79.8419C16.9485 79.5317 16.8067 79.3367 16.6073 79.0885C16.5895 79.0752 16.5541 79.0309 16.5541 78.9954C16.5541 78.9378 16.6605 78.8891 16.7003 78.8758C17.9545 78.4105 18.8586 76.9391 18.8586 75.1221C18.8586 72.6448 17.3607 71.1291 15.6589 71.1291C14.7903 71.1291 14.0767 71.4748 13.4519 72.3257C12.8846 73.1012 12.5833 74.0806 12.5833 75.193C12.5788 76.1059 12.827 77.0145 13.2746 77.6969ZM17.0815 77.3513C16.8732 77.985 16.4788 78.6054 15.9425 78.6054C15.291 78.6054 14.8213 77.9584 14.5332 77.2183C14.2452 76.4871 14.1122 75.5564 14.1122 74.7188C14.1122 73.4868 14.4579 71.5501 15.5924 71.5501C16.8687 71.5501 17.3474 74.0496 17.3474 75.4456C17.3474 76.0483 17.2543 76.815 17.0815 77.3513ZM23.6626 77.5197V73.7084C23.6626 73.54 23.7025 73.3007 23.5474 73.3007C23.277 73.3007 23.0111 73.3228 22.7408 73.3228C22.4705 73.3228 22.2001 73.3007 21.9298 73.3007C21.819 73.3007 21.6683 73.2874 21.6683 73.5001C21.6683 73.6552 21.7702 73.7172 21.8677 73.7394C22.0317 73.7749 22.2046 73.8103 22.3021 74.0009C22.3951 74.2047 22.373 74.6789 22.373 74.9094V76.8682C22.373 77.1563 22.3996 77.3823 22.24 77.5994C22.0849 77.8166 21.8146 78.0072 21.5885 78.0072C21.3891 78.0072 21.1808 77.8742 21.0745 77.6393C20.9681 77.4 20.9415 76.9834 20.9415 76.7042V73.4868C20.9415 73.3228 20.9149 73.3007 20.7997 73.3007C20.5294 73.3007 20.2723 73.3228 19.9975 73.3228C19.7272 73.3228 19.4702 73.3007 19.1954 73.3007C19.0846 73.3007 18.9339 73.2874 18.9339 73.4868C18.9339 73.6596 19.0359 73.7172 19.1334 73.7394C19.3018 73.7881 19.4746 73.797 19.5677 74.0009C19.6607 74.2047 19.6474 74.6789 19.6474 74.8961V76.8106C19.6474 77.3247 19.6829 77.8742 19.9222 78.2952C20.1482 78.6764 20.5559 78.8669 20.9061 78.8669C21.4024 78.8669 21.788 78.5567 22.1824 78.1578C22.2179 78.1224 22.2932 78.0382 22.3464 78.0382C22.4572 78.0382 22.4261 78.3972 22.4261 78.4681C22.4261 78.601 22.373 78.9112 22.5281 78.9112C22.6211 78.9112 22.8028 78.8004 22.8915 78.7694L23.8 78.4105C23.9019 78.3883 24.1988 78.3262 24.1988 78.1268C24.1988 77.9806 24.1191 77.9495 24.0349 77.9318C23.8088 77.9008 23.6537 77.8299 23.6626 77.5197ZM28.1298 77.112V74.5061C28.1298 74.1117 28.1121 73.7394 27.8373 73.5001C27.5315 73.2475 27.0795 73.1633 26.7249 73.1633C26.1577 73.1633 25.5682 73.3405 25.0985 73.797C24.8902 73.9876 24.5091 74.5238 24.5091 74.9094C24.5091 75.1132 24.6509 75.1841 24.7794 75.1841C24.9877 75.1841 25.3068 75.0512 25.4929 74.9227C25.7234 74.7897 25.7765 74.6213 25.8652 74.3377C25.976 73.9787 26.1798 73.5843 26.49 73.5843C26.9421 73.5843 26.88 74.4219 26.88 74.8252V75.2196C26.88 75.2551 26.8446 75.2684 26.787 75.3393C26.5787 75.5564 26.264 75.7691 25.9582 75.8888C25.6657 76.0084 25.196 76.2965 24.9611 76.5358C24.6553 76.8372 24.4913 77.1829 24.4913 77.6969C24.4913 78.4016 24.8813 78.8669 25.3954 78.8669C26.2552 78.8669 26.7958 77.9097 26.9022 77.9097C26.982 77.9097 27.0307 78.149 27.0484 78.1844C27.1858 78.5922 27.3542 78.7561 27.691 78.7561C28.0545 78.7561 28.378 78.5168 28.6483 78.2066C28.7369 78.1135 28.8743 77.923 28.8743 77.7546C28.8743 77.6704 28.8344 77.5861 28.7635 77.5861C28.6926 77.5861 28.6084 77.6969 28.5552 77.728C28.4755 77.7989 28.4356 77.8476 28.3381 77.8476C28.0855 77.8521 28.1298 77.2892 28.1298 77.112ZM26.8756 76.3231V76.8948C26.8756 77.0987 26.8402 77.3025 26.787 77.4355C26.6717 77.6969 26.3881 77.8875 26.1621 77.8875C25.8652 77.8875 25.6923 77.564 25.6923 77.1917C25.6923 76.7618 25.9006 76.5004 26.1532 76.2832C26.2419 76.2123 26.6895 75.8179 26.7781 75.8179C26.8933 75.8223 26.8756 76.2877 26.8756 76.3231ZM30.9528 77.7811V70.8942C30.9528 70.7302 30.9927 70.3225 30.8066 70.3225C30.7135 70.3225 30.5717 70.4023 30.483 70.4555C30.1019 70.646 29.7341 70.8145 29.3352 70.8854C29.2111 70.9075 28.9585 70.9341 28.9585 71.1601C28.9585 71.2931 29.0605 71.3241 29.1314 71.3374C29.6189 71.4305 29.5923 71.5501 29.5923 72.206V77.7767C29.5923 77.8122 29.5923 78.2199 29.0605 78.3041C28.9585 78.3263 28.8256 78.3617 28.8256 78.5789C28.8256 78.7606 28.9142 78.7827 29.0339 78.7827C29.4504 78.7827 29.8715 78.7606 30.288 78.7606C30.6869 78.7606 31.0902 78.7827 31.5068 78.7827C31.6176 78.7827 31.7062 78.7606 31.7062 78.5789C31.7062 78.3617 31.5422 78.3263 31.4314 78.3041C30.9528 78.2243 30.9528 77.821 30.9528 77.7811ZM33.6916 77.1474V73.4513C33.6916 73.3317 33.7093 73.0215 33.572 73.0215C33.3858 73.0215 33.3105 73.1544 33.2573 73.2342C32.987 73.633 32.5083 73.9167 32.1317 74.0496C32.0386 74.0851 31.7594 74.1205 31.7594 74.3377C31.7594 74.5371 31.9012 74.5283 32.0209 74.5371C32.4286 74.608 32.402 74.8828 32.402 75.3836V77.143C32.402 77.4177 32.402 77.8476 32.3399 78.1002C32.3001 78.2642 32.0297 78.2775 31.9056 78.2997C31.8037 78.3262 31.6973 78.3927 31.6973 78.5523C31.6973 78.7561 31.848 78.7783 31.9588 78.7783C32.3222 78.7783 32.6723 78.7561 33.0357 78.7561C33.4036 78.7561 33.767 78.7783 34.1304 78.7783C34.2412 78.7783 34.4007 78.7561 34.4007 78.5523C34.4007 78.3972 34.2855 78.3262 34.1924 78.2997C34.0329 78.2642 33.7625 78.2775 33.7182 78.1002C33.665 77.8521 33.6916 77.4222 33.6916 77.1474ZM32.2646 71.6964C32.2646 72.2947 32.6058 72.6625 33.0224 72.6625C33.439 72.6625 33.8024 72.2947 33.8024 71.6831C33.8024 71.0937 33.4302 70.7746 33.0402 70.7746C32.6546 70.7746 32.2646 71.1247 32.2646 71.6964ZM36.231 76.3364V74.351C36.231 73.8679 36.231 73.8856 36.5146 73.8856H36.9445C37.175 73.8856 37.2414 73.8989 37.2414 73.5621C37.2414 73.2608 37.1085 73.3228 36.9268 73.3228H36.4748C36.2487 73.3228 36.1956 73.3361 36.1956 72.9993V72.175C36.1956 72.0066 36.231 71.7318 36.0493 71.7318C35.9031 71.7318 35.8144 71.9711 35.7568 72.1262C35.5042 72.7378 35.0699 73.1633 34.6001 73.4292C34.5071 73.4779 34.3254 73.571 34.3254 73.7527C34.3254 73.9433 34.6001 73.8856 34.7154 73.8856C34.804 73.8856 34.9059 73.9211 34.9236 74.0408C34.9414 74.1383 34.9502 74.4485 34.9502 74.546V77.0455C34.9502 77.4886 35.0034 78.0027 35.2028 78.3706C35.3757 78.6941 35.7169 78.8758 36.005 78.8758C36.4038 78.8758 36.8382 78.6453 37.1351 78.2642C37.206 78.1667 37.3788 77.9274 37.3788 77.7767C37.3788 77.6792 37.3345 77.6083 37.2769 77.6083C37.1439 77.6083 36.9534 77.954 36.6653 77.954C36.1911 77.9495 36.231 76.7796 36.231 76.3364ZM40.9863 74.6125L40.4146 76.4073C40.3968 76.4915 40.3171 76.7884 40.2284 76.7884C40.1575 76.7884 40.0733 76.4782 40.0467 76.4162L39.4041 74.577C39.3643 74.4573 39.2623 74.1959 39.2623 74.0496C39.2623 73.8103 39.4883 73.797 39.6036 73.766C39.7055 73.7305 39.8296 73.6818 39.8296 73.5045C39.8296 73.3007 39.6302 73.3007 39.5194 73.3007C39.1781 73.3007 38.8324 73.3228 38.5001 73.3228C38.1189 73.3228 37.7156 73.3007 37.3345 73.3007C37.206 73.3007 37.042 73.3007 37.042 73.5045C37.042 73.7039 37.1883 73.7438 37.2946 73.766C37.4586 73.8014 37.5384 73.8014 37.6492 73.992C37.791 74.218 37.9284 74.6125 38.0303 74.8739L39.3155 78.4459C39.3775 78.6276 39.4795 78.9112 39.4795 79.1062C39.4795 79.2835 39.3775 79.545 39.2978 79.6779C39.1161 79.9749 38.9078 79.9039 38.6463 79.8951C38.4646 79.8818 38.2652 79.8463 38.1322 80.0856C38.0525 80.2408 38.0214 80.4801 38.0214 80.6706C38.0214 81.3044 38.4026 81.3398 38.7837 81.3398C39.3598 81.3398 39.3244 81.1581 39.4972 80.4535L39.967 78.9024L41.2832 75.0778C41.3763 74.7897 41.5447 74.2756 41.6909 74.0363C41.8372 73.7837 41.9081 73.8103 42.1252 73.7616C42.2449 73.735 42.369 73.6906 42.369 73.4868C42.369 73.2962 42.2582 73.2962 42.143 73.2962C41.8903 73.2962 41.6466 73.3184 41.394 73.3184C41.1414 73.3184 40.8976 73.2962 40.645 73.2962C40.5431 73.2962 40.3703 73.2962 40.3703 73.4868C40.3703 73.7394 40.5697 73.7483 40.6982 73.7616C40.8622 73.7749 41.0882 73.8546 41.0882 74.1294C41.0882 74.3022 41.0262 74.4706 40.9863 74.6125ZM46.8672 74.0851V72.3744C46.8672 72.2415 46.8672 72.042 46.9558 71.9534C47.0577 71.8603 47.3369 71.8825 47.4433 71.8825C47.7181 71.8825 48.0372 71.8692 48.2898 72.0376C48.5247 72.1927 48.5911 72.37 48.7241 72.6713C48.8039 72.8353 48.8969 73.1234 49.0609 73.1234C49.1938 73.1234 49.2337 72.955 49.2337 72.7999V71.652C49.2337 71.3152 49.1761 71.3064 48.9501 71.3064C48.3917 71.3064 47.82 71.3551 47.2616 71.3551C46.4595 71.3551 45.644 71.3064 44.8463 71.3064C44.7222 71.3064 44.638 71.3551 44.638 71.5457C44.638 71.7496 44.802 71.7495 44.9172 71.7717C45.4712 71.8914 45.4357 72.2149 45.4357 72.9328V77.1873C45.4357 77.9628 45.4623 78.1667 44.8862 78.2997C44.7843 78.3262 44.6557 78.3839 44.6557 78.5744C44.6557 78.7517 44.7444 78.796 44.864 78.796C45.2806 78.796 45.6972 78.7517 46.1138 78.7517C46.5658 78.7517 47.0046 78.796 47.4522 78.796C47.563 78.796 47.6605 78.7517 47.6605 78.5744C47.6605 78.3573 47.4965 78.3218 47.3857 78.2997C46.8362 78.18 46.8716 77.8919 46.8716 77.1873V75.6583C46.8716 75.3348 46.8539 75.1709 47.142 75.1443L47.5186 75.1177C48.4405 75.1177 48.1391 76.2655 48.5557 76.2655C48.7019 76.2655 48.7374 76.0882 48.7374 75.9287C48.7197 75.5963 48.7019 75.2329 48.7019 74.9005C48.7197 74.5637 48.7197 74.2047 48.7374 73.8724C48.7374 73.7084 48.7019 73.5621 48.5645 73.5621C48.4094 73.5621 48.3474 73.8014 48.3119 73.9566C48.241 74.2668 48.1391 74.5282 47.8953 74.5903C47.7269 74.639 47.3458 74.639 47.1641 74.639C46.8495 74.6479 46.8672 74.444 46.8672 74.0851ZM49.5794 76.0262C49.5794 77.8166 50.7184 78.8714 51.9681 78.8714C53.2312 78.8714 54.4543 77.7368 54.4543 75.9331C54.4543 75.1177 54.1352 74.3554 53.6566 73.8679C53.1957 73.3849 52.6196 73.1721 52.039 73.1721C50.838 73.1677 49.5794 74.2801 49.5794 76.0262ZM53.0628 76.2167C53.0628 77.0056 52.8899 78.4636 52.1232 78.4636C51.2546 78.4636 50.9754 76.589 50.9754 75.7071C50.9754 74.9049 51.2014 73.5799 51.9504 73.5799C52.3315 73.5799 52.6373 74.0452 52.7969 74.4795C52.9786 74.9581 53.0628 75.6628 53.0628 76.2167ZM54.7956 76.0262C54.7956 77.8166 55.939 78.8714 57.1887 78.8714C58.4518 78.8714 59.6749 77.7368 59.6749 75.9331C59.6749 75.1177 59.3514 74.3554 58.8728 73.8679C58.4119 73.3849 57.8357 73.1721 57.2552 73.1721C56.0542 73.1677 54.7956 74.2801 54.7956 76.0262ZM58.2833 76.2167C58.2833 77.0056 58.1105 78.4636 57.3438 78.4636C56.4752 78.4636 56.196 76.589 56.196 75.7071C56.196 74.9049 56.422 73.5799 57.171 73.5799C57.5521 73.5799 57.8579 74.0452 58.0174 74.4795C58.1947 74.9581 58.2833 75.6628 58.2833 76.2167ZM64.4479 77.3646V70.8233C64.4479 70.6593 64.439 70.3225 64.2618 70.3225C64.213 70.3225 64.1598 70.3447 64.1155 70.3801C63.7477 70.6327 63.3488 70.8233 62.9411 70.9075C62.817 70.943 62.4536 70.943 62.4536 71.2089C62.4536 71.426 62.653 71.4482 62.7683 71.4482C63.1671 71.4482 63.0918 71.8293 63.0918 72.2858V73.3494C62.9987 73.3494 62.848 73.2874 62.8037 73.2652C62.6397 73.1943 62.4669 73.1677 62.2896 73.1677C61.0576 73.1677 60.0117 74.3909 60.0117 76.137C60.0117 77.6305 60.7518 78.8714 61.8731 78.8714C62.622 78.8714 63.0297 78.1933 63.1228 78.1933C63.1671 78.1933 63.176 78.2997 63.176 78.3351L63.1937 78.5877C63.2114 78.7428 63.238 78.8714 63.3666 78.8714C63.4552 78.8714 63.6369 78.7783 63.7167 78.7384L64.8866 78.1889C65.1392 78.0692 65.0949 78.0958 65.1215 77.6969C65.1215 77.5773 65.1348 77.4 65.0019 77.4C64.8335 77.4 64.7138 77.8388 64.5498 77.8388C64.4036 77.8388 64.4479 77.4798 64.4479 77.3646ZM63.0918 75.1753V77.7678C62.9588 77.923 62.7239 77.9584 62.5866 77.9584C61.78 77.9584 61.4033 76.7751 61.4033 75.809C61.4033 74.9271 61.647 73.6375 62.4448 73.6375C62.6708 73.6375 62.8702 73.8147 62.9943 74.0762C63.1184 74.3377 63.0918 74.8606 63.0918 75.1753ZM73.0233 77.626L73.0499 77.1208C73.0632 76.9435 73.0676 76.6688 72.8771 76.6688C72.7663 76.6688 72.7042 76.7884 72.6599 76.9214C72.5048 77.3291 72.3453 77.7235 72.0838 78.0205C71.8223 78.3085 71.5121 78.4769 71.1708 78.4769C70.546 78.4769 70.023 77.985 69.6951 77.2804C69.3893 76.6245 69.2608 75.7647 69.2608 74.9847C69.2608 74.1959 69.4026 73.3184 69.7394 72.6669C70.0673 72.0332 70.5991 71.59 71.1753 71.59C72.3497 71.59 72.3763 73.0126 72.7751 73.0126C72.8682 73.0126 72.9391 72.9417 72.9391 72.8087C72.9391 72.6891 72.9214 72.5827 72.9037 72.4631L72.8327 71.8515C72.7884 71.5191 72.7884 71.4704 72.558 71.3729C72.1547 71.2177 71.6583 71.1247 71.2506 71.1247C70.4174 71.1247 69.4868 71.4482 68.8087 72.1307C68.1218 72.8353 67.6875 73.9078 67.6875 75.0911C67.6875 76.2389 68.1307 77.3734 68.791 78.0559C69.4159 78.7029 70.3111 78.9378 71.0778 78.9378C71.645 78.9378 72.2611 78.796 72.7485 78.3883C73.0144 78.1756 73.01 78.0205 73.0233 77.626ZM75.0929 75.4368H77.1271C77.424 75.4368 77.6146 75.4279 77.6146 74.9847C77.6146 74.4706 77.3664 74.0275 77.0739 73.7305C76.7061 73.3494 76.2142 73.1633 75.7577 73.1633C74.57 73.1633 73.3956 74.2313 73.3956 75.9375C73.3956 77.6349 74.4459 78.8669 75.6735 78.8669C76.192 78.8669 76.6884 78.6631 77.1138 78.2686C77.2468 78.1623 77.5658 77.8388 77.5658 77.5994C77.5658 77.4931 77.5038 77.4222 77.4329 77.4222C77.2246 77.4222 76.9498 78.0426 76.2851 78.0426C75.35 78.0426 74.7783 76.8948 74.7783 75.7381C74.7916 75.4057 74.8802 75.4368 75.0929 75.4368ZM76.0768 74.9271C75.8596 74.998 75.3987 74.998 75.1638 74.998C75.0309 74.998 74.8802 75.0202 74.8802 74.803C74.8802 74.5504 75.0087 74.1914 75.1195 74.0009C75.2924 73.7394 75.5716 73.571 75.833 73.571C76.161 73.571 76.4003 73.8812 76.4003 74.3244C76.4003 74.6257 76.3117 74.8518 76.0768 74.9271ZM79.9545 73.9787V73.4513C79.9545 73.3317 79.9723 73.0215 79.8349 73.0215C79.6532 73.0215 79.5734 73.1544 79.5202 73.2386C79.2499 73.633 78.7713 73.9167 78.399 74.054C78.3059 74.0895 78.0223 74.125 78.0223 74.3377C78.0223 74.5415 78.1641 74.5282 78.2838 74.5415C78.6915 74.6125 78.6649 74.8872 78.6649 75.388V77.143C78.6649 77.431 78.7004 77.8742 78.5763 78.1002C78.4876 78.2553 78.3015 78.2686 78.1686 78.3041C78.0755 78.3263 77.9603 78.3972 77.9603 78.5656C77.9603 78.765 78.1154 78.7827 78.2306 78.7827C78.5453 78.7827 78.8378 78.7561 79.1524 78.7561C79.5513 78.7561 79.9501 78.7827 80.349 78.7827C80.4465 78.7827 80.5484 78.7473 80.5484 78.5656C80.5484 78.4105 80.4686 78.3395 80.3756 78.3041C80.2426 78.2553 80.0964 78.2199 80.0077 78.0426C79.9191 77.8653 79.9457 77.3734 79.9457 77.143V75.1974C79.9457 74.7897 79.9102 74.5415 80.1451 74.2668C80.3179 74.0629 80.5706 73.9167 80.7966 73.9167C81.0315 73.9167 81.2663 74.0718 81.386 74.3465C81.5057 74.6213 81.5322 75.0778 81.5322 75.388V77.143C81.5322 77.369 81.5588 77.8609 81.4702 78.0426C81.3816 78.2199 81.2353 78.2553 81.1068 78.3041C81.0137 78.3395 80.934 78.4105 80.934 78.5656C80.934 78.7428 81.0359 78.7827 81.1334 78.7827C81.5323 78.7827 81.9355 78.7561 82.3344 78.7561C82.649 78.7561 82.946 78.7827 83.2562 78.7827C83.3714 78.7827 83.5265 78.7694 83.5265 78.5656C83.5265 78.3972 83.4157 78.3263 83.3227 78.3041C83.1897 78.2686 82.9992 78.2553 82.9149 78.1002C82.7909 77.8742 82.8263 77.431 82.8263 77.143V75.1487C82.8263 74.5637 82.8352 74.0585 82.4718 73.6552C82.1571 73.3095 81.7671 73.1633 81.3771 73.1633C80.5307 73.1677 80.0919 73.9787 79.9545 73.9787ZM85.4366 76.3364V74.351C85.4366 73.8679 85.4366 73.8856 85.7202 73.8856H86.1457C86.3806 73.8856 86.4426 73.8989 86.4426 73.5621C86.4426 73.2608 86.3141 73.3228 86.128 73.3228H85.6759C85.4499 73.3228 85.4012 73.3361 85.4012 72.9993V72.175C85.4012 72.0066 85.4366 71.7318 85.2549 71.7318C85.1087 71.7318 85.0245 71.9711 84.9624 72.1262C84.7098 72.7378 84.2755 73.1633 83.8057 73.4292C83.7127 73.4779 83.531 73.571 83.531 73.7527C83.531 73.9433 83.8057 73.8856 83.921 73.8856C84.0096 73.8856 84.1115 73.9211 84.1292 74.0408C84.1425 74.1383 84.1558 74.4485 84.1558 74.546V77.0455C84.1558 77.4886 84.209 78.0027 84.4084 78.3706C84.5813 78.6941 84.9225 78.8758 85.2106 78.8758C85.6094 78.8758 86.0438 78.6453 86.3407 78.2642C86.4116 78.1667 86.5844 77.9274 86.5844 77.7767C86.5844 77.6792 86.5401 77.6083 86.4825 77.6083C86.3495 77.6083 86.159 77.954 85.8709 77.954C85.3967 77.9495 85.4366 76.7796 85.4366 76.3364ZM88.3084 75.4368H90.3425C90.6395 75.4368 90.83 75.4279 90.83 74.9847C90.83 74.4706 90.5863 74.0275 90.2894 73.7305C89.926 73.3494 89.4296 73.1633 88.9776 73.1633C87.7854 73.1633 86.6155 74.2313 86.6155 75.9375C86.6155 77.6349 87.6658 78.8669 88.8934 78.8669C89.4119 78.8669 89.9127 78.6631 90.3381 78.2686C90.4711 78.1623 90.7902 77.8388 90.7902 77.5994C90.7902 77.4931 90.7281 77.4222 90.6572 77.4222C90.4489 77.4222 90.1697 78.0426 89.5094 78.0426C88.5698 78.0426 88.0026 76.8948 88.0026 75.7381C88.007 75.4057 88.0912 75.4368 88.3084 75.4368ZM89.2922 74.9271C89.0751 74.998 88.6142 74.998 88.3793 74.998C88.2463 74.998 88.0912 75.0202 88.0912 74.803C88.0912 74.5504 88.2242 74.1914 88.335 74.0009C88.5078 73.7394 88.787 73.571 89.0485 73.571C89.3764 73.571 89.6157 73.8812 89.6157 74.3244C89.6157 74.6257 89.5271 74.8518 89.2922 74.9271ZM93.1079 74.0762V73.4558C93.1079 73.3361 93.1257 73.0259 92.9883 73.0259C92.8022 73.0259 92.7268 73.1588 92.6736 73.243C92.4033 73.6375 91.9247 73.9211 91.5524 74.0585C91.4549 74.0939 91.1757 74.1294 91.1757 74.3421C91.1757 74.546 91.3175 74.5327 91.4372 74.546C91.8449 74.6169 91.8183 74.8917 91.8183 75.3924V77.1474C91.8183 77.4222 91.8183 77.8521 91.7563 78.1047C91.7164 78.2731 91.4416 78.2819 91.322 78.3085C91.2156 78.3307 91.1137 78.4016 91.1137 78.5567C91.1137 78.7606 91.2599 78.7872 91.3751 78.7872C91.743 78.7872 92.0887 78.7606 92.4565 78.7606C92.8199 78.7606 93.1877 78.7872 93.5511 78.7872C93.6619 78.7872 93.8215 78.7606 93.8215 78.5567C93.8215 78.4016 93.7107 78.3307 93.6132 78.3085C93.4581 78.2731 93.1877 78.2819 93.1434 78.1047C93.0858 77.8521 93.1079 77.4222 93.1079 77.1474V75.9641C93.1079 75.5963 93.037 74.351 93.4758 74.351C93.7373 74.351 93.7949 75.0468 94.3533 75.0468C94.7433 75.0468 95.0756 74.6125 95.0756 74.0762C95.0756 73.5355 94.6989 73.1677 94.3355 73.1677C93.622 73.1677 93.2542 74.0762 93.1079 74.0762ZM95.2308 77.3867L95.213 77.8919C95.2042 78.2155 95.2219 78.3573 95.4346 78.5257C95.7714 78.7872 96.2811 78.8714 96.6578 78.8714C97.1275 78.8714 97.6505 78.7517 98.0316 78.3839C98.4216 78.0116 98.6875 77.4532 98.6875 76.7929C98.6875 75.7913 98.0671 75.3703 97.4422 75.1088L96.968 74.9049C96.7198 74.8119 96.3298 74.6435 96.3298 74.2269C96.3298 73.7217 96.7375 73.5799 97.0345 73.5799C97.5486 73.5799 97.6593 73.8901 97.943 74.3953C98.0006 74.5017 98.1158 74.6789 98.2355 74.6789C98.4172 74.6789 98.3994 74.3111 98.426 74.1427V73.8546C98.426 73.5222 98.4083 73.4602 98.1734 73.3893C97.8278 73.2696 97.3225 73.1721 96.9724 73.1721C96.2013 73.1721 95.2263 73.7837 95.2263 74.9803C95.2263 76.1148 96.3121 76.5314 96.968 76.8062C97.2871 76.9524 97.6771 77.1651 97.6771 77.7058C97.6771 78.2465 97.1586 78.4592 96.8217 78.4592C95.6917 78.4592 95.798 76.979 95.4125 76.979C95.2308 76.9701 95.2396 77.1962 95.2308 77.3867Z" fill="#006BB6"/>
</g>
<defs>
<clipPath id="clip0_202_1499">
<rect width="110.793" height="87.0261" fill="white" transform="translate(0.294922 0.97467)"/>
</clipPath>
</defs>
</svg>
