<svg width="87" height="16" viewBox="0 0 87 16" fill="none" xmlns="http://www.w3.org/2000/svg">
<g clip-path="url(#clip0_19_202)">
<path d="M6.76935 1.40888C7.02588 0.799579 7.89958 0.799579 8.15611 1.40888L9.67012 5.00509C9.77833 5.26195 10.0229 5.43746 10.3035 5.45969L14.2334 5.77094C14.8993 5.82368 15.1692 6.64457 14.6619 7.07388L11.6678 9.60767C11.454 9.78869 11.3605 10.0727 11.4259 10.3433L12.3406 14.1318C12.4956 14.7737 11.7888 15.2811 11.2187 14.9371L7.85417 12.9069C7.61385 12.7618 7.31161 12.7618 7.07129 12.9069L3.70673 14.9371C3.13667 15.2811 2.42983 14.7737 2.58482 14.1318L3.49959 10.3433C3.56493 10.0727 3.47153 9.78869 3.25767 9.60767L0.263481 7.07388C-0.243821 6.64457 0.0261702 5.82368 0.692012 5.77094L4.62193 5.45969C4.90264 5.43746 5.14716 5.26195 5.2553 5.00509L6.76935 1.40888Z" fill="#FF8E36"/>
<path d="M24.6799 1.40888C24.9365 0.799579 25.8102 0.799579 26.0667 1.40888L27.5807 5.00509C27.6889 5.26195 27.9334 5.43746 28.2141 5.45969L32.144 5.77094C32.8098 5.82368 33.0798 6.64457 32.5725 7.07388L29.5784 9.60767C29.3645 9.78869 29.2711 10.0727 29.3364 10.3433L30.2512 14.1318C30.4062 14.7737 29.6994 15.2811 29.1293 14.9371L25.7648 12.9069C25.5244 12.7618 25.2222 12.7618 24.9819 12.9069L21.6173 14.9371C21.0473 15.2811 20.3404 14.7737 20.4954 14.1318L21.4102 10.3433C21.4755 10.0727 21.3821 9.78869 21.1683 9.60767L18.1741 7.07388C17.6668 6.64457 17.9368 5.82368 18.6026 5.77094L22.5325 5.45969C22.8132 5.43746 23.0577 5.26195 23.1659 5.00509L24.6799 1.40888Z" fill="#FF8E36"/>
<path d="M42.5905 1.40888C42.847 0.799579 43.7207 0.799579 43.9772 1.40888L45.4912 5.00509C45.5994 5.26195 45.844 5.43746 46.1246 5.45969L50.0545 5.77094C50.7204 5.82368 50.9903 6.64457 50.483 7.07388L47.4889 9.60767C47.2751 9.78869 47.1816 10.0727 47.247 10.3433L48.1617 14.1318C48.3167 14.7737 47.6099 15.2811 47.0398 14.9371L43.6753 12.9069C43.435 12.7618 43.1327 12.7618 42.8924 12.9069L39.5278 14.9371C38.9578 15.2811 38.2509 14.7737 38.4059 14.1318L39.3207 10.3433C39.386 10.0727 39.2926 9.78869 39.0788 9.60767L36.0846 7.07388C35.5773 6.64457 35.8473 5.82368 36.5131 5.77094L40.443 5.45969C40.7237 5.43746 40.9683 5.26195 41.0764 5.00509L42.5905 1.40888Z" fill="#FF8E36"/>
<path d="M60.501 1.40888C60.7576 0.799579 61.6313 0.799579 61.8878 1.40888L63.4018 5.00509C63.51 5.26195 63.7545 5.43746 64.0352 5.45969L67.9651 5.77094C68.6309 5.82368 68.9009 6.64457 68.3936 7.07388L65.3995 9.60767C65.1857 9.78869 65.0922 10.0727 65.1575 10.3433L66.0723 14.1318C66.2273 14.7737 65.5205 15.2811 64.9504 14.9371L61.5859 12.9069C61.3455 12.7618 61.0433 12.7618 60.803 12.9069L57.4384 14.9371C56.8684 15.2811 56.1615 14.7737 56.3165 14.1318L57.2313 10.3433C57.2966 10.0727 57.2032 9.78869 56.9894 9.60767L53.9952 7.07388C53.4879 6.64457 53.7579 5.82368 54.4237 5.77094L58.3536 5.45969C58.6343 5.43746 58.8788 5.26195 58.987 5.00509L60.501 1.40888Z" fill="#FF8E36"/>
<path d="M78.4114 1.40888C78.668 0.799579 79.5417 0.799579 79.7982 1.40888L81.3122 5.00509C81.4204 5.26195 81.6649 5.43746 81.9456 5.45969L85.8755 5.77094C86.5413 5.82368 86.8113 6.64457 86.304 7.07388L83.3099 9.60767C83.0961 9.78869 83.0026 10.0727 83.0679 10.3433L83.9827 14.1318C84.1377 14.7737 83.4309 15.2811 82.8608 14.9371L79.4963 12.9069C79.2559 12.7618 78.9537 12.7618 78.7134 12.9069L75.3488 14.9371C74.7788 15.2811 74.0719 14.7737 74.2269 14.1318L75.1417 10.3433C75.207 10.0727 75.1136 9.78869 74.8998 9.60767L71.9056 7.07388C71.3983 6.64457 71.6683 5.82368 72.3341 5.77094L76.264 5.45969C76.5447 5.43746 76.7892 5.26195 76.8974 5.00509L78.4114 1.40888Z" fill="#FF8E36"/>
</g>
<defs>
<clipPath id="clip0_19_202">
<rect width="86.5675" height="14.0963" fill="white" transform="translate(0 0.951904)"/>
</clipPath>
</defs>
</svg>
