<svg width="118" height="23" viewBox="0 0 118 23" fill="none" xmlns="http://www.w3.org/2000/svg">
<path d="M6.64866 10.0593L5.53361 9.42647C4.20761 8.64292 3.48434 8.07033 3.48434 7.1361C3.48434 6.11146 4.32816 5.4786 5.6843 5.4786C6.58839 5.4786 7.70343 5.87037 9.21025 6.68405L9.39107 6.8046V4.1526L9.36093 4.12246C8.06507 3.45946 6.82948 3.1581 5.47334 3.1581C2.64052 3.1581 0.711794 4.8156 0.711794 7.25665C0.711794 9.27578 2.00766 10.4511 3.99666 11.6264L5.14184 12.3196C6.76921 13.2839 7.3418 13.9771 7.3418 15.0017C7.3418 16.2072 6.25689 17.051 4.71993 17.051C3.48434 17.051 2.15834 16.5688 0.50084 15.514L0.470703 15.4537V18.4975L0.681658 18.6181C1.97752 19.2208 3.3638 19.5222 4.87061 19.5222C8.09521 19.5222 10.2349 17.6838 10.2349 14.9113C10.2349 12.9223 9.24039 11.5661 6.64866 10.0593ZM26.2976 19.1605H29.0701V12.3196H35.2179V9.87851H29.0701V5.99092H35.5193V3.51973H26.2976V19.1605ZM40.0699 12.199H45.9766V9.75796H40.0699V5.99092H46.4588V3.51973H37.3275V19.1605H46.5794V16.6592H40.0699V12.199ZM86.6909 3.51973C86.6909 3.51973 85.1841 5.90051 83.1649 9.06483C83.0142 9.30592 82.8937 9.51687 82.8334 9.66756H82.8033C82.743 9.51687 82.6225 9.30592 82.4718 9.06483C80.302 5.65942 78.9157 3.51973 78.9157 3.51973H75.5706L81.3869 12.0483V19.1605H84.2197V12.0483C84.5211 11.5963 90.036 3.51973 90.036 3.51973H86.6909ZM71.6528 3.00742L64.2995 19.1605H67.3132L68.4584 16.4482H75.1185L76.2938 19.1605H79.2773L71.9241 3.00742H71.6528ZM74.1541 14.188H69.4227C69.4227 14.188 70.7186 11.0538 71.5624 9.1251C71.7131 8.7936 71.7734 8.37169 71.7734 8.37169H71.8035C71.8035 8.37169 71.8939 8.7936 72.0145 9.1251C72.8884 11.1442 74.1541 14.188 74.1541 14.188ZM64.39 3.51973C64.39 3.51973 62.2804 10.1196 61.6174 12.2291C61.5571 12.4702 61.4366 12.8921 61.4065 13.0127H61.3763C61.3763 12.9223 61.2558 12.4702 61.1654 12.2291C60.653 10.8429 57.6093 2.94714 57.6093 2.94714H57.3682C57.3682 2.94714 54.4751 10.5415 53.8121 12.2291C53.7217 12.5004 53.6011 12.9223 53.6011 13.0127H53.571C53.571 12.9223 53.4505 12.4702 53.36 12.2291C52.6669 10.0593 50.5875 3.51973 50.5875 3.51973H47.6341L53.2395 19.703H53.5107C53.5107 19.703 56.6449 11.8976 57.2476 10.3607C57.338 10.1497 57.4586 9.66756 57.4586 9.57715H57.4887C57.4887 9.66756 57.6093 10.1196 57.6997 10.3607C58.212 11.6566 61.4366 19.703 61.4366 19.703H61.7078L67.3132 3.51973H64.39ZM17.6786 3.00742L10.2952 19.1605H13.3088L14.4841 16.4482H21.1443L22.3196 19.1605H25.3031L17.9498 3.00742H17.6786ZM20.1799 14.188H15.4183C15.4183 14.188 16.7142 11.0538 17.558 9.1251C17.7087 8.7936 17.7991 8.37169 17.7991 8.37169H17.8293C17.8293 8.37169 17.9197 8.7936 18.0402 9.1251C18.884 11.1442 20.1799 14.188 20.1799 14.188Z" fill="#292929"/>
<path d="M105.737 18.0757C105.737 13.736 99.2879 13.3443 99.2879 7.16631C99.2879 2.73626 102.723 0.536304 106.159 0.174668C105.827 0.174668 105.496 0.144531 105.044 0.144531C104.2 0.144531 103.808 0.174668 103.115 0.204804C96.6962 0.506168 93.2908 3.94171 93.0798 9.21558C93.0798 9.54708 93.0195 10.1498 93.0195 11.084C93.0195 12.0183 93.0497 12.5909 93.0798 12.9525C93.2908 18.0757 96.5455 21.4811 102.633 21.9331C103.597 21.7523 105.737 21.029 105.737 18.0757ZM117.038 9.21558C116.827 4.21294 113.753 0.867804 107.967 0.265077C106.943 0.476031 104.923 1.22944 104.923 4.12253C104.923 8.46217 111.373 8.85394 111.373 15.0319C111.373 18.8894 108.449 21.692 104.08 22.0235C104.351 22.0235 104.652 22.0537 105.044 22.0537C105.888 22.0537 106.28 22.0235 106.973 21.9934C113.392 21.692 116.797 18.2565 117.038 12.9826C117.038 12.6511 117.068 12.0484 117.068 11.1142C117.098 10.1498 117.068 9.57722 117.038 9.21558Z" fill="#D72E2B"/>
<path d="M111.373 15.0319C111.373 8.88408 104.954 8.46217 104.954 4.12253C104.954 1.22944 106.973 0.476031 107.998 0.265077L107.003 0.174668C106.702 0.174668 106.431 0.144531 106.189 0.144531C102.754 0.506168 99.3184 2.70612 99.3184 7.13617C99.3184 13.284 105.768 13.7059 105.768 18.0154C105.768 20.9688 103.628 21.7222 102.663 21.903C102.844 21.9331 102.995 21.9331 103.176 21.9331C103.537 21.9633 103.839 21.9633 104.14 21.9633C108.48 21.692 111.373 18.8894 111.373 15.0319Z" fill="white"/>
</svg>
