<svg width="50" height="50" viewBox="0 0 50 50" fill="none" xmlns="http://www.w3.org/2000/svg">
<circle cx="25" cy="25" r="25" fill="#454448"/>
<path d="M39.1109 16.6875C38.0762 17.1578 36.9609 17.4668 35.8053 17.6146C36.9878 16.9025 37.9015 15.7737 38.3315 14.4166C37.2162 15.0884 35.98 15.5587 34.6765 15.8275C33.615 14.6719 32.1235 14 30.4304 14C27.2726 14 24.6926 16.58 24.6926 19.7646C24.6926 20.2215 24.7464 20.6649 24.8404 21.0815C20.0567 20.8396 15.7971 18.5418 12.9618 15.0615C12.4647 15.9081 12.1825 16.9025 12.1825 17.9506C12.1825 19.9527 13.1903 21.7265 14.749 22.7343C13.795 22.7343 12.9081 22.4655 12.1287 22.0624V22.1027C12.1287 24.8977 14.1175 27.2358 16.7512 27.7598C15.9057 27.9922 15.0178 28.0244 14.1578 27.8539C14.5227 28.9994 15.2375 30.0017 16.2016 30.72C17.1657 31.4382 18.3307 31.8363 19.5327 31.8582C17.4952 33.4713 14.9694 34.3433 12.3706 34.3307C11.9137 34.3307 11.4569 34.3038 11 34.25C13.5531 35.8894 16.5899 36.8434 19.8418 36.8434C30.4304 36.8434 36.2487 28.0554 36.2487 20.4365C36.2487 20.1812 36.2487 19.9393 36.2353 19.684C37.364 18.8777 38.3315 17.8565 39.1109 16.6875Z" fill="white"/>
</svg>
