<svg width="50" height="50" viewBox="0 0 50 50" fill="none" xmlns="http://www.w3.org/2000/svg">
<circle cx="25" cy="25" r="25" fill="#454448"/>
<path d="M22.7498 29.4373L29.7238 25.4061L22.7498 21.3749V29.4373ZM38.2834 18.9159C38.4581 19.5475 38.579 20.394 38.6596 21.469C38.7537 22.544 38.794 23.4711 38.794 24.2774L38.8746 25.4061C38.8746 28.3489 38.6596 30.5123 38.2834 31.8963C37.9474 33.1057 37.1681 33.8851 35.9587 34.221C35.3272 34.3957 34.1716 34.5166 32.3978 34.5972C30.651 34.6913 29.0519 34.7316 27.5738 34.7316L25.4373 34.8122C19.8071 34.8122 16.2999 34.5972 14.9159 34.221C13.7065 33.8851 12.9272 33.1057 12.5912 31.8963C12.4166 31.2648 12.2956 30.4182 12.215 29.3432C12.1209 28.2683 12.0806 27.3411 12.0806 26.5349L12 25.4061C12 22.4633 12.215 20.2999 12.5912 18.9159C12.9272 17.7065 13.7065 16.9272 14.9159 16.5912C15.5474 16.4166 16.7031 16.2956 18.4768 16.215C20.2236 16.1209 21.8227 16.0806 23.3008 16.0806L25.4373 16C31.0675 16 34.5747 16.215 35.9587 16.5912C37.1681 16.9272 37.9474 17.7065 38.2834 18.9159Z" fill="white"/>
</svg>
